<mxfile host="65bd71144e" modified="2023-07-27T13:18:30.143Z" agent="Mozilla/5.0 (X11; Linux x86_64) AppleWebKit/537.36 (KHTML, like Gecko) Code/1.80.1 Chrome/108.0.5359.215 Electron/22.3.14 Safari/537.36" etag="jWDA-Fxapj1qH-h-ujFT" version="21.6.5" type="embed">
    <diagram id="2izP-0pvtHL-6ZI8SSJ8" name="Page-1">
        <mxGraphModel dx="884" dy="603" grid="1" gridSize="5" guides="1" tooltips="1" connect="1" arrows="1" fold="1" page="1" pageScale="1" pageWidth="827" pageHeight="1169" math="0" shadow="0">
            <root>
                <mxCell id="0"/>
                <mxCell id="1" parent="0"/>
                <mxCell id="40" value="" style="rounded=1;whiteSpace=wrap;html=1;fillColor=#FFB570;strokeColor=none;" parent="1" vertex="1">
                    <mxGeometry x="40" y="840" width="645" height="60" as="geometry"/>
                </mxCell>
                <mxCell id="35" value="" style="rounded=1;whiteSpace=wrap;html=1;fillColor=#FFD966;strokeColor=none;" parent="1" vertex="1">
                    <mxGeometry x="40" y="775" width="645" height="60" as="geometry"/>
                </mxCell>
                <mxCell id="33" value="" style="rounded=1;whiteSpace=wrap;html=1;fillColor=#FF9933;strokeColor=none;" parent="1" vertex="1">
                    <mxGeometry x="40" y="905" width="645" height="60" as="geometry"/>
                </mxCell>
                <mxCell id="2" value="" style="shape=image;verticalLabelPosition=bottom;labelBackgroundColor=default;verticalAlign=top;aspect=fixed;imageAspect=0;image=data:image/png,iVBORw0KGgoAAAANSUhEUgAAAtkAAAHQCAYAAAB0qnbLAAAABHNCSVQICAgIfAhkiAAAABl0RVh0U29mdHdhcmUAZ25vbWUtc2NyZWVuc2hvdO8Dvz4AAAAmdEVYdENyZWF0aW9uIFRpbWUAdmllIDE2IGRpYyAyMDIyIDExOjQ5OjQ0oENXdgAAIABJREFUeJzs3Xl8XHd97//Xdzbtu2Rbi/d9txPHdhI7zkogAQIJEAgFSi+0t6UUKNDl0XJp+XEL5Qe9hbIUuCVNICEQmpLESRxntR3HsR3v8m7L1i5rX0ej2b73j7FjWZZlWZrRzEjv5+ORxyMenTnnMzNneZ/v+Z7vMdZai4iIiIiIRI0j3gWIiIiIiIw3CtkiIiIiIlGmkC0iIiIiEmUK2SIiIiIiUaaQLSIiIiISZQrZIiIiIiJR5op3AYMJh8OEw2E0uqCIiMj44XCobU+iz+l0xruEQcU9ZFtr6enpoaenB5/Ph9/vV7gWERERkWFzOp2kpKSQmppKZmYmqamp8S4JE6+H0QSDQVpbW+ns7CQcDsejBBEREREZh9xuN7m5ueTk5MTtCsqYh2xrLS0tLbS1tanFWkRERERixul0UlRURHZ29pgve0xDtt/vp66uDr/fP1aLFBEREZEJLjMzkylTpoxpq/aYhWyv10t9fT2hUGgsFiciIiIi8o6UlBRKS0txucbmlsQxifM+n4/a2loFbBERERGJi76+Pqqrq8csj8Y8ZAcCAWpra9X/WkRERETiaixzacxDtrqIiIiIiEii8Pl8NDc3x3w5MQ3ZbW1t+Hy+WC5CREREROSatLW10dvbG9NlxCxkh8NhWltbYzV7EREREZERi3VrdsxCdnt7u7qJiIiIiEhC6u3tjWlrdsxCdmdnZ6xmLSIiIiIyah0dHTGbd0xCtt/v1wNnRERERCShdXd3x2ykkZiEbK/XG4vZioiIiIhETTgcpq+vLybzjknIjt6IIr288bX1LJy/iLu+tYfL28bDNDz2SZbMn8/8+fOZv2ABi5Zez7p7PsHf/N83ORccMN3iD/Ljk+onLiIiIiIRsRoJLybPlQwEAtGZUdd2nn65mTBhal98lre/dD03pQ4ynXMa7//7v+WeYkPY10j58w/z8Pf+hPK2R3jyq9eRFp1qRERERGSciVpuHSAmLdnhcDgKc7G0v/40r3dksvqWlXgaX+KZN3sGn9RkMvOGDdx2223c8Z4H+cK//oTPLbWc/t1v2BHbIRBFREREJInFajS8mITsqBRrm3n5mTfoybuLP/qHj7M+o5VXn9lK53D6pjunsmxJAfTUU98RjcAvIiIiIuNRdBqHLxfzx6qPVLj+RZ7e1ceku97HjSW38v4NuXRvfYZXWoeRsm0ndfWdWFcOORkJ+xFFREREJM6SanSR0QtR9fwz7AuU8u73ryLVZLHuvjso8O3gmZfOcfn5RpiAz4vX66W7tZKdj36df9vqI2fdXazNjEP5IiIiIjKhxeTGx1ELnWLjs+WEZ36W9y13A5C25v3cPeUpfvPMJmo/8odM7X96EDzGjz+0ih+f/6dxpDP1lj/n+//wXgrNmFcvIiIiIhNcQobsYPkzbDwJs/5oA6U9nUSeHTmHW28r4fEnnmFjxSf40znOi29wzuDD3/omH5zqxOFKJ79sBtPyU1G+FhEREZF4SMCQ3cfeZ1+gKhQi9POPsebnA//u5LmNx/jjLy7mnZht0ilZdB3Xz3UOnFhEREREZMwlXsju3cnTmxpwrfgMP/jLDWT3b462bbz8z1/mV89v5ODnFrPSHbcqRURERESuKOFCdte2Z3ilJZWb/vLT3LGmcECXjzDTPnIDv/3GCzz99hdYeaMnTlWKiIiIiFxZYo0uYtt4/ZnX6cy+jQ/eWTBIn2oHk+++n3UZjbz0zA68cShRRERERORqjI3B4IAVFRUEg8Fozzbu+vr81J9rorm1la6uHvyBQMzGVpTYMsbgcrlIT0slNyebyUUF5OflxqUWay0tbe20t3fS4/XiD4y/bWeicDoduJwusjLTyc/LJSc7K94lEQqHo/qgBYPB5dL9LyIyfmRkZFBaWhr1+SZcd5FEFAgEOXH6DLX1DYTDCtXjgbWWQCBARyBAR2cXldW1ZGdlMn/OTAry88akhlA4TGVVLWera/H7/WOyTBlb6WlpzJxeRlnJFIyJ/XhH1kJLaysNjc20d3Ti7fXF7ElmEnvGGDxuN5mZGRTm51I8eRKpqSnxLktEhkkt2VfR1t7B/kNH6VMImjCmTy1lwdxZMQ1FnV3dHCg/So+3N2bLkMSRk53F8sULSE9Pi9kymlpaOX6ygu4edaQbr4wxlBZPZt7smXg8uvNfJFpi1ZKtkD2ElrZ29uwvV0vQBDR5UiErliyMSdBubmlj36EjhEKhqM9bEpfb7WbViiVR70JireXoidNU1dRFdb6SuDxuN8uXLqQgTl3cRMabWIXsxLrxMYF4vb3sO3hEAXuCOtfYzPFTZ6I+386ubvYdOqyAPQEFAgH2HCjH2+uL2jyttewvP6qAPcH4AwH27D9EY3NLvEsRkSEoZF/BoaMnxkVrvIzc2aoaWts7oja/cDjMwcPHCIV04jZR+f0BDh05FrUbpk+cPsO5xuaozEuSSzhsOVB+lK7unniXIiJXoJA9iKbmVtqiGK4keZ2IYmt2VW29+ssKbe2d1J9rGvV8Ojq7OFtVG4WKJFmFQmEOHTmuUa5EEpRC9iAqq3Xgkoj2jk46OrtGPR9r4WxlTRQqkvHgTGX1qOdx4tQZhSuhs6ubhiictIlI9ClkDxAMBmlpa493GZJAzjWNvt9jW0cHvr6+KFQj40FXd8+ormp093i1n5J3VKpPvkhCUsgeoLOrW61DcolotGS3tan7kVxqNF3SzjWpH7Zc1N7RqWFmRRKQQvYAvT61Nsqlen2jHw1C42HLQD3ekbdkR+PET8YXrRMiiUchewANrSYDBaPwmHONVCMDBUaxXvnUGCAD9EZxaEgRiQ6FbJGrCEeh+5BFXZDkUqNZrwI6aZMBNDSoSOJxxbuA8cdB+uQ5rFw2j5nFeWSnubH+Htoa6zh1tJyDFW2o55wMjyFzyT186mYPu578PbtbU5j/7o/wrimVbHxsC2cCg7wlZTb3fPxWSs68xCOvVZOy5B4+tb4YZ6iBrU88x/7OS4Ode/otfOo980inh4PP/obXa3WgTga6b0REJPEpZEeVi6Kld/C+m8pwt1dx9NBuznX6ISWTotKZrLjrveRtepyXKtUlRUbCx5kT1fhmTGP+NA9nTl9+upY+czbTPF6On6wjAKQA2AD+cBHzZ+dwYF97vzZ1D9PnTcMTDBDWnmCCcJE3azlrls2irDCTFBPE5+2hramBs0f2s6/GO4prLob86+/jY8taee6RrZwNA7gpWnQjt143nUmZKTh8x3j60e20FC9kcVE3xw9U0aHzBREZp3RojSJ3ySrefVMZ9sxWnnj5JB39GgWPHznIroI5TDM6osjI+atPUdE7i7lzp5F2+hSX3E5pMpg9twRX51GO1QUBE3ndtlFx1sPcubMoOLCX5gvrZeo05k81VFbUUTavcGw/iMSBIXvB7Xzo1lICNUfZ+8Y5OgIuMrJzKSqZyrxp2ewfVciGUG8Xre0971ytM1nzuGXdLJxHtvH7Ex0EQj7aw4bc0oXcsOgcDQcVskVk/FLIjppUZi+bT26wipe3XRqwL/C3nOLU2Bcm40mgjuOnu1m0YA6z0k9xuN8AFSZrJvOLHbTtP825S9a/MM0nT5N/9xzmF+6nuTHyx4yZc5gaquTlakPZvDH9FBIPJpcFS8tIadrD754/QFv/dWTfbhwOB6PrLGTpOPIKvz7Sb5FZOWSbbo6fOENt44W561YgEZkYFLKjxVnE1GIX4YZKzmq0NomZEHUnz9C+eBHzZ2VypLz7fMujIW/OHKaYVnaebLksLIXbKzjRtJxlcyfxVmMDIZPJ7LlT8J95iWr/nLH/GDL2TCrpqYZwUzc9g6TpcDjyomPSDXz8g7Opeva3bKkLA4asJffwyfWTad/zDL/e1UwYMHnLefAjS2nZ9AQvVUaunFzsLrIdNjzE+xekALDqgT9iFZbOg8/zErdw/7IsDHl84E8WAGA7y/ndr9+iXrcEiMg4opAdLSkZZLjB19WtGxslpsJNpzjRtoRVc2eSc/gQ7RZw5DNvTj62cRcn2ge5/m67OHmyiTUr51C6s4HqjJnMn9zLqd0NBD0K2RNCuJ1zzQGWTl3Jbcv97DlZT4s3eFn3kHBLPXV9SykpzsHUtWFxU1xaiA2GyS2ZQqZpptNCWnEJ+aFGDpwbbKSTEDU7nuLRmhv40O1FnNr0Intbw4T9vfTyHM863sN75zTz8lNvUxcGG/bjVcAWkXFGITuKTLwLkIkh3Mbxk82sWj2buXnl7G61OIpmMy8vTN0bZ+gctI+rpaviFHVrVzG/bDc9BXOY1F3B1nMhmDrWH0Dio5fjb2xl0l3rWHrT3cy/KYy/u53GhlpOHzvC4eouggChJmoaQiwonULG3ja6HUWUTQlz9shZJi0opsRTTmefm+KSIkzLPuquMGR30NdDl9dPGEuft5vOrgsp2ou3L4y1AbxdXXQqXMs18nq9dHZ24tdTLhOC0+kkIyOD3NzceJeScBSyo6Wvh+4AlGRl4gHUY0Rix9Jx6jT1N6xh3pwC9uxqo3juTLJDdeyu6LnyjWveSo7VrGHD/GUE83JpO7WFprBODieScNdZtjxVw55JpUwvnczkSZOYOm0JG2YvYMHeF/nvXQ348VNX1wI3lFDsPsrpnBJK3M3sL68iOG8dZZNdHKsppKzYReeJerp046KMEa/Xy+7du6mrq4t3KTKIrKwsVq5cSWlpabxLSRi6AyVaQk1U1wdxTJnOjLR4FyPjne06w/HaEHlzZjM5pZj5szLxV52iYsizOx9nT1TDzGUsyWnlxMm2Ud7oJskpSHdjJYf37eLVFzfy6K+eZec5mLTiehZmGsDSU1dPu2syZZNcZJVMIbu9jtquc9Q0uigpzceVV0xpeh+1dVqHZGx0d3ezadMmBewE1tXVxdatW6moqIh3KQlDITtqfJw+eJwO1zTWrp9DziDfrKdgNrML9ZVLNHg5faKWQNZMlqyaz+z0yBjaV3vYdl/1UfacrqKi/BDHNXaaALavkfLjjYQd2eRmR65rhNvqqetNpaR0MmUl+fTUNdAR7qOuto3M4mKKS4vJC52jplFj/svY2LVrF319V9vDSSJ4++236e3V9XxQd5GoCtS9zQs7cnjfjRv46IdmcORkDY39HkazYGY2lS+e5XRzvCuV8cBXeYqzfdNZuDQT23OUYzWDPQJygEADe15qiH1xkoBSyMl10N3ey6XR2E1eQRYO66XHe/7EK9RETUOQRVOXsyArRN2RFsJYOusa6F41nVWz8qDpbepH1CXWEgqFMU4XLvVVkmHo6uri3Llz8S5DhikUClFZWcmCBQviXUrcKWRHVZCmgy/xxLm5XLd8LjOXrWZZqgvr76G1sZZ9L23hkJ72KNfA6XQAIUKDrTb+Go6d6WXeojQ6T5+mbrBBHkQucOSy7N73MNd7luMV9TR1+Qg50ymcOo9l87LoPbu339WNIPW1zTC7hNJgFUfOjyASbqmjNriUxcWWlrfr6RnRxRBLV1s7ftcUFiwqo/ecj1Cwl7bWHoZxmigTUEdHR7xLkGuk3yxCITvqwnjPHeeNzcd5I96lSJJzkpuXjSNYT5d3sDQTpHLL4/zbliu939Jd/hw/Kh96KaHKLfz030dZqiS+cDtH39qLmTWVGctWszzdgyPsp6ejhbO7X2b3gcp+NzFaeurraQ2XkN9cf3EEkfMt3Itn+Kmtax9xf2z/2b1sObqONavu5IFUF0bjZMsQQoO2Mkgi028WoZAtknA8FEybRsmUGaycm0rvmTNUq4lPRq2P5tMH2Xr64LCmtq37+PVP9102j+ObHuH44O+gdc/v+dGei6+Eat/kFz8dZNJwB8e3PsfxrcOrXEQkGSlkiyQak8nsNeu5IctLY8VOXtp+Bl+8axIREZFropA9QCik65USZ7aVXU8+zK541yEiIjIC6i4SofHkBrBWw5qJiIiIjFQ4rAZLUMgWEREREYk6dRcRERERuSpD9g2f5C/umYHz/Cs25MfbcY6z5Tt4bdtRWoJXnrY/27ufX3/vaU6+06vCTcHCm7l17RJmTskl1QTo7e6gub6Kk3u2saN+Nh/78n3MHWxm/YQbXuenP9tCoy7KJwSFbBEREZHhsm0cfOFFDndYjCuTKYvWctP6D1GW+QT/vvEkvv4B17ZTvvlljnZemnptsL3fkJWG3JUf4tPvm0WgYg/bX6ii3e8mM6+Q4hnzWDKnnLfOnmHb755k/4X+B6aIlfdsYGbbLp55s4oL2d76GtEI1YlDIVtERERkuGwfLZUnOHG+ufj40TP4sz/HuxYvZ9aLJznS/0mo1kdTxRGODNW0bIpYtnoOafWv8Z+Pv0Fz/+7M21/B4XAQDoepPtYvPjumM/2uDczoquXYkSOM6OGrEnMK2TEQCgUJBfyEw4l7d60xDlxuD06X+xreZQn4+wgHg1jidy3KGANc+XnMxuHA7UnBmPF3y0E4HIKEvTnX4HA4wFz7s7KttdgE3l4wBofjKtdpRWRish3UN/RgSzLITDXgv8Z9tEknM90Qruuga5D7BXUTYfJSyI4iay3ernb8Pm+8Sxk2tyeVjOw8jGPoQBoM+OnpbCWcJMPyGGNIy8wlJS093qVEgaW3p4s+bw/WJv7O1uVOIT0rG6fLc9Vpw6Eg3q4OAv7EHwncGIMnNZ20zJzzJ3rJy1pLwO87vz0n9kmb25N61f1Tf+FQkIC/L6G3FYPB6XbjcqdEbZ4aMi2OTArZ2anQ107bZU/nNbg8qaSmDuguEvLTFzi/jtomauv9rJpzC/eu9bG9/CyN3YGE3TJl+BSyo6i3uyOpAjZAwO+jp7ONzNyCK04TDofo7mjBJtHZdOSEpy1ykE5JjXc5o9Ld0UagrzfeZQxbMNBHZ1sz2XmFQwbtcChIZ2tTQoeh/qy19PX2EAoGyMorinc5Ixb099Hd2Zo023PkhDmHlLSMq07r7Wqnr7dnDKqKDqfLTWZOPg7n6A/F8by6OPEYnC4PHo/FuDKYvOh2NswOcvblHVQEB0zqmMz6//FXrB/wcvDE7/nerw9EHjRmezi06WlKHngvq+5+iKV3h+nrbKK+qoKj+3ez73QbeuhvclLIjpJwOJRUO/f+An4fwYAfl3vwQNTX25M0B+SBens6kzpkB/y+pArY77AWb1fHkGG0t7szaQJ2f8GAn77enmGFvkQTDgUjJ8wJ2+XocheuEDqcTtyeK2/Lvp6upNsHh4IBujtayc4rGlE3K4kTx2Ru+ezfcMs7LwRp3v0bntzVyGXXE8Kt7Ht2IwfbB7Rke5su6Ucdbj/KC784yfbi2cyZOZXS0qnMnLuW9yy+juVvPM6jr1XRlzybrZynkB0loWByn2eGhgjZoUDyfrZQMBDpw5ykB7BAX+J3o7iSYMCPDYeveKk/GbqIXEnA70vKkO3r7UmqgN2fr6friiHbWovP2zXGFUVHKBjA3+fDk5oW71JkuMIt7H36WQ60W5xphcxdeztrV93H+6p/zpOHOgdcU/DTXneWs8MZU88G6aw7zt664+wFTFoZGz72CW658TaW73mUXR3Jue1OZOPvzrA4SdaW3guGutSYjK2N/SXzZdRkDUQXXOnmX2vDSf3ZknV7T+bGgOAQtYdDwaRen0JBjQ2RXAJ0NFRRVVXFmeN72fzr37GrNZ0Fd2xgdvS62WN7a3n7QA1hZz4FecnZUDTRKWSLiEwQNpy8QXSoUXWSOWBD8tc/4fkr2frqEbzZS1m/Mn+Isa+uwKSRV5AxyENr3BROysNhu+nq0jqSjNRdRERkwtCBWiT6LN5jW9lZv4Db1tzIzL3PUXHh4oRJpWjWIhYVDtj2bA/1JytpCwKmkNUf/wSLuo9y6OhZGtq9BJ1ZTJ6zgtXLcuk5/joHW7XtJiOFbBEREZHRCDez+/VyVn1sGTcve4Mzb3dGXje5LLn7QywZOH3oLC/84FF2dVqwTex/+XVYOJe5a+5idVYqznAf3a31nHz9N2zdcZxOZeykpJAtIiIiclWWzt2P8M3dg//Nd/Jp/s83nn7nlStPO/CtPs4deZMXj7w5/FLClbzwr9/gheG/Q+JAITuBOEru4H/+0c3k1m7mJ//5Fm3vnLk6mXvfl3loxfm7z22Ivu5mqo+8yUuvHqTRf3GaB3Ne4/u/3E0idd8y6WXccPvtrJpfSn6aIdDbRdu5ao68+RLbK3qwg3y+QG83bU01nD68h517z9Ch5yyIiIhIElHIThgupq1YjGP/m5ycv4xlRTvZMmDIn1DNFn75dDk9xk1W2XXcefd9POTq4ccbT5Ow96abPFZ96A+4K/sUrz73Kyqa+3Bm5FJUNotJmSnAxXFtL34+J570HCbPWMrq2/+AFUte57HHtlGbsB8ycenETSdu0aT1SeuTyHA4ruEpreOZQnaiSJnNygUBDv96G9VmKe9eXsobL9VcOrB9oIfWlma6LDQ3bWLzlLl8csE8ih2nqUzQEcVM6nTmTnNy+uln2XGsL/JicyN1lScun7jf54Nz1FWeoPxEC3/4Rxu4Z80x/u+2Jt22dU104qYTt2jS+qT1KT7S0jSGeLLRbxahU42EYEifv5K53eWUN/Rx9tBxnItXMMM91HsswUAQHE6cCTx8pg1009XroGjmLHJd115ooGEnO0+HmTx/HvkJ/DkT0oUTtz3b2Hcig6XLSy8fIur8iU1zUz1n9m1i84EusubOoziB9wzvnLhteZYdx6o5d/6k7cD2Tbx0sPXSE7F3Pl/kpG3flv/iF49uo61kA/esKbr2obYmMq1PWp/ipKCggJSUKA5ALTFXXFwc7xISQgLv+iYQk83iFTNoKT9Ms4Vg9UGOBBewYm7q4Dtt4ySjdBXrl+Xhr66kIUFbsQEInmbrc7vxznuAv/irL/Fnn/4o9911E0tKMwcZE3QQto/m5k5MTh45WluvgU7crkQnbiOh9elKtD7FntPpZPHixfEuQ4apqKiIkpKSeJeRENRdJAGYgqWsKKnnwNNtkVaTUB3lh3v45IqFZBzdR/f5phTHzPfwpa+9BzAYAnSc3cF/byrHm9B9KCwdxzbxHye3UlQ2nbLSYspmruTetetZveVX/HJrLVd7Bp2OWyPwzonbZpot2OqDHAl+lBVzX6biiO/ybjfGSUbJ9edP3LYkxYnbpPc+wF8s8dJcX0dtTRWnjxzkaG03V+0ae+HErTRy4taivrRXp/XpyrQ+jYn58+fj9Xo5duxYvEuRIRQVFbFu3TqM0ZEbFLITgIPi5cuZklJA8Re+xrvfed1gQitYkruft9oir4Rrt/HYM+V0h8P4ezro7A0mTx/lkJemyqM0VR5l35tb2XP7Z/gfN9/M/J2/pbxviPeZFAqLsrEdbXQk8oE6wejEbWja/V8brU9D0/o0NlauXMnUqVOpqKigs7OTUEhnNInA4XCQmZlJaWkpU6dOVcDuRyE73lzTWbE0m6pXHuaFE/3Spsli6X0PsnxZETu3tERe83fT3NSUUHflj0yI9rYurDOFFLeBIUK2u3gNq2c5OLflBHrg1XDpxC3WJ24T6zHYWp/UEJA4CgsLKSwsjHcZIsOikB1nKbNXsCitmlf319DY3f9w1MT+w42svW4FZW+8Erf6Ri1lMe/7+CJ6y49wtqGFDi9kFC/k5ltnEarZzJmefp/ZnUF+QSEpxoE7LZcpM5eweu1icupe57FdGllk2HTiphO3aNL6pPVJREZEITueTDrzV87HU72ZEz0D986W1mNHOXfbGlbM2ErS9kIL1HPy9ExWLruNZbfmkJEC/u4Wak+8yK9e233JQclZtoE//NwGsGECvm7aG2s4/dpjvLW3go5g/D5CstGJm07coknrU+zXp4l1ZURk4lDIjifr5eAT3+bglf7csp3/+83tkX+c/g7fHHJmIU4+fbVp4iDcyrEtGzm2ZaiJIrX/49NDTSPDohM3nbhFk9YnrU8iMmLGxuAUuqKigmAwOfc4FWerOXH6zDW/z+/z0tPZFoOKxkZaZjap6VmD/q2rrYlgIHmfspBbVIwxIx//z+VyceeGm0ZVw54D5TQ1t17z+3o62/D7vKNadjxl50/C6bp8nDdrw7Q31cehouhwutxk508a1TyKp0xi+eIFI3rv69t34vMN1VF4cJ2tjYSCV7uNL3HlTSod9PVgwE9XW9MYVxM9ntR0MrLzRjWPWTOmMm/2zChVJDKxZGRkUFo6+P5lNGIy8vBEvPQ1mhCXCMwQ98cn+53CQ302ibErrjvJ/Zsk+zYhIiKxp5A9gNM5sq/E6R7yqQwJz+n2jOhvic7p8gwR9IbH4YhfoHI4h/XInoRkjMHhGLz+of6WDJyu5Oxpl8wnB0PVnsyfCyJDoInI+KMtewD3CMOyw+EkJS0jytWMDXdKKq4hgnRqWmbSBqK0zMG7wFwLTxROoNwjDGUpqRlJGyA8V6k9WbcXgJS0zFHPY6TrBIBrhCdfQ23niW6ok32H05XUVxOj8bs4k3QfLTKeJe9eKUayMkd+4E/PzEm64BDpC5g/5DTG4SAztyCpWu+Mw0FGdj5uT+qo5zWadeKCjPT0Eb3P4XSSkZ2XdEHb7UkhLTN7yGlSM7LwpKaNUUXRk56VO2g/82uVkT7yzz7SE7+U9ExMUraaGtIyrnzCbMzQf09kLrcHd8rotwOPJ7mvpoqMR8mTmsZIZkYGKR4Pff4R3OhnDOlZuaSmZxEM+rHhsX0ygTFm2F0jDAany4XDObxVIHKj12SCAT/hUDDuXYKGCgrGOHC5PVELpgX5o7shCSA3Z+jAORR3ShrZ+R76fD2EQ0ESedw543Dg8qTgGWZoyMjOx5PqI9DnG/Pt5ZqYSGupJyUtKgEbIC83Z8TvzczMoLW945rf53A4ycotpKezlVCS3JzucDhJz87F5U4ZcrqU9EwsFl9PV9z3T8PlTkklI2v0+xeITmOAiERXTEJ2srW69WdM5K7/s1U1BFhXAAAgAElEQVQ1I56Hw+nE40y+FrrhcLk9MOpLm05m3PYQ92bt4ZFnj5x/JLMhvewG3vuuBTiOvcazO6q5bMSwOHA6nUyeNPqni+Xn5eDxuPH7Rzayg8PpJC1j5EE9kbk9qVG44pA86xREWrGzs0be5aQgP5eqmroRvXfgCTOYhL0P1eFw4nK7GW6BqelZpKRlEAycb+RI0GPRtTZyXI3b5SI7Kzlb8kUSQaxya0xCttPpJBQKxWLWY2LGtFKqauoIJ3LL2rjiIHv2zbz/tml4973Ic3vODfWAtTE1rbR4VH1nLzDGMK2shFMVlVGoSq4ucdcpgBnTykb1/qKCfDxuN/7AyIfji84Jc+IxxjHhTtqKp0yK6w3aIskuVjcfx2SuyX6ndGpKCnNnTY93GROEi4JFt/PA7aW07XiBZxIoDKWlpTI7iuvBjGllpKYOfclboiFx1ymA7KxMykqmjGoeDoeDGdNHF9TlWjjInr2O+989l+CBF/nvNxMnYDschplaF0RGxRmjkbxikoY9nuRvHZkxrYxJRQXxLmOc8zBl5bv44E25VL/6HC8cbiVReok6nQ6WL1k44lEcBuNyOlm2eIFanGIqcdcpiDzYaNniBVG5NDljaimZGSO7oVauRWKftM2ZOZ201NHf4C0ykcUqt8YkZKeOgw3eGMPyxQsVtGPIUbySu1fnUvv687xyuotE6Zzjdrm4fvkScrOj38cxPzdHQTuGEnWdAnC5nFy3bHHUgrHDcf5EMIlG/Uk+iX3SNqmogJnTp8a7DJGkF6vcGpOQnT7C4coSjdPpYOXSRcydPUOhKAbC7bWcbfMwfeUypqUlxvebl5vNjatXkp+XG7NlTJlUxKoVy9R1JAYScZ0CyMxIZ831K8jPG/mIIoPJysxg1YolGr4tRhL5pG1SUQHLFy9M6oEGRBKB0+lMrpZsj8dDSsr4CBDGGGbPmMb6tTcwrawEt1utRlHTW8PWja9w1MznnvetZUZ6fA4WxkRamFcuXcSa61eQnhb7kWHy83JYt+Z6Zs2YppbIaEqQdeqClBQP8+fO4qbV18VsiLXcnGxuvGElhVEYalIulYgnbQ6HYd7sGaxcumjETygWkYsyMzNjdrJqbIwGFG1ra6OpqSkWs44ray0dnV10dnXjDwQIhxKpbSNZOJi07FZWpZ3i1V1V9LkLWHjDCqY76ti7+xjnfLG/o8jhcOB2u0hLSyU3Oyuu9xGEwmGaW1ppa++gu6eXQCCQNOP8Jg4HZTd+gNsyDvFfr5ykN2UKq26/mfmOs2x5ZS/VvWPzfbqcTtweN5kZ6eTn5pCflzumLY3NLW1UVtfS3NqmdWhULo4u8ugrXVx37+0s4gQvbHyLs974fK8ej4fiyUXM1A3UIlE1bdq0mHUXiVnIttZSUVGR1EP5SawYMqbMosTVwpma9kgfR2c6haUl5Dm6qK85R3cidXyUJKB1qr9AMEhnZxfeXh+BJHnoTGJxULR4HStTK9i6t4Y+dz7zVy5lqqOBA3tP0Ng3NkHbYQxut5vsrEwyM9LVNUQkyjIyMigtLY3Z/GN2ndoYQ0FBAY2NjbFahIwnIS/NtbVQWkJxGdTXNNIdVEucjMIEXqfcLhcF+Xnotu2RMmRkOjCuPKZNMwQBf1MDHaUlrFybNeFO2kTGI2MMhYWjf9jckMuIVUv2BTU1NXi93lguQkREJIoGuTIC4Ew7f3Wke0KdtImMR/n5+ckfsoPBIFVVVQR1yVJERERE4iw9PZ3S0tKYd8GK+a3JLpeL0tLSpH8KpIiIiIgkt5SUFEpKSsbkHoeYt2Rf0NfXR21trVq0RURERGTMpaWlUVJSErPHqA80ZiEbIl1HGhoa1EdbRERERMZMTk4OkyZNGtNResY0ZF/Q3t5OS0uLhvcTERERkZjxeDxMmjQpLk8jj0vIBgiHw3R0dNDe3k4gEIhHCSIiIiIyDqWmppKXl0dWVlbcaohbyO7P5/Ph9Xrx+Xz4/X5CoZBauUVERERkSMYYnE4nTqeTlJQUUlNTycjIwO12x7u0xAjZIiIiIiLjicbVExERERGJMoVsEREREZEoU8gWEREREYkyV7wLuDIL/jYIdkCoF0I+sHqQjYiIiMiE5fCAMw0cqeDJB1f8Rg+5msQK2YE26DgIPafAVxsJ1iIiIiIig3FlQ1oZZC2ArMWRAJ4gEmB0EQudR6BlK/RWx7cUEREREUlOxgmZC6BwQyR4x7ucuIbs7hNwbhP0NcStBBEREREZZzLnweR7IaUobiXEJ2SH+6DheWh/G9Aw3SIiIiISZcYFk+6CgnWAGfvFj3nI9rdC1cPgbxnTxYqIiIjIBJQ5D8oeitw0OYbGNmT31kD1oxDsHrNFioiIiMgEl1YKUz85pqORjN042X0NUPkLBWwRERERGVu9tVD5MITHbuS6sQnZgQ6oemRMP5iIiIiIyDv6GqD6MbChMVncGIRsC7W/iQRtEREREZF46TkNjS+NyaJiH7Jbd4D3bMwXIyIiIiJyVS1vjMmzWWIbsoOd0Lg5posQERERERm+MNQ9RayHkY5tyG7eAmF/TBchIiIiInJN+s5B56GYLiJ2ITvYBW1vx2z2IiIiIiIj1vQasWzNjl3Ibt8LNhCz2YuIiIiIjFjfOfBWxmz2sQvZMW6CFxEREREZlRjm1diE7EAb+OpGMQNLza8fJ2X5L/jmyRg149sefvbZ75D2uUO0x2YJIiIiIpLIOstjNuvYhGxvVUxmKyIiIiISNcEuCMSmuTU2IdtXG5PZjg8WfyAc7yJEREREBGKWW10xmWtfU0xmO5jOE+V849928+TuZhoCbqYumsOffeE2vrgqo98ZRJCTL27lCz86xJaaIFlTy/jEn97MtEHnGOTEC1v4wk/K2VoTJHvaND71ZzdS+uTj/JXnPdT/aCm5w152mB3f/Rm3bprJf349m40/2c+m411k3P9RTv/dNNyx/nJEREREZGh9jZC1OOqzjU3IDnljMtuBeo/u4J5Pb+X0/Ov42v++nSXpXt76r2187X/+lo6HP8E/Lo18vJYtm7n7rw7juWs9j/59GXmtVfzwh8/ym84wLL10ni1bNnP33xwl695b+NXXisltr+XnP97I4y2XTjvcZQOEW4/wpX+Zzd/99Yf59kwXnYGUGH3xIiIiInJNQr0xmW2MQnZsir1EuJvHv/8mOwtX8epP7mB9euTlW1ZPwn7iF3z7P47z+f+zmELbxn/+rJza+evY8+21LHEBlHHz1AA3PPQml7S5hyPTNizdwOZv3sBcR2Ta9bPC3PTA6xenHe6yTeR1G0zjY393D59fpWgtIiIiklBilFtj0yfbBmMy20v0VvPi3iBz71zEjen9Xnfmc+8tBXgP1nAwCPTU8cYxy5I75rGwX8ZNWbCA+2YO+Pjnp11221xm9fuTa+Yc3je73wvDXfZ5JqOM25cqYIuIiIgknBjl1qRNfuFuL03+MMcf/iWZjwz8Y5iAK582C+EeH+0hw+SijEvPKBwZlOSbS992ftqCvLRLpzVpFOZenHa4y764qBSynSP/rCIiIiKSXJI2ZDsy0shzOVj6sQ/x+P05lzfJmxRK3eDISCXXCU3dfVjSeCcq2z7auy2k9Z9nKjlOaGjrJUwa7+Ri20tzu4Up17ZsEREREZmYYvfEx1hLL+PulS5OvN1AsLSABTMH/DcjkywDZJSwfqHh4FtVNPZrXQ6fq+SV0wOG0ssoZt0COPDaKSr6/Sl45hQb+78w3GWLiIiIyISU2C3Zto/DO47xuzOXJlZHVhF3ri3gk1+6icf+aBvv/kwXX3lwDismOehp6eLk4TO8aJby7F/OwuPI41OfXcwPv7iFzz6Sz08/VkpuWxX/+r92stsMSMKOfD79x0v40V9s44G/N/x/9xeT017Lz398gPosA8ZEWsId2cNb9ph9USIiIiKSSBI7ZIfaeeKff88TA152L1jPnifXsXTRjbzweB7f/slu/v3b5VR2WbLys5m7eAYf/GjBOx+uYMO72PStLXzhR79jzveDZEyZwgc+dRd/b5/ifw2Yd8GGd7Hp2yl84Ufb+dgLQbKmTuUT//Pd/PkTv+WfMlNIPT9d2jCXLSIiIiITj7HW2qtPdo1Ofidmj6iMB9tSzv3vfYHmP/0sWz6Zm8R9bERERETkEjnLofTBqM9WDa4D2K4zfPcn5yhaNYU5BS5662v5zS/eZGPqPH59rwK2iIiIiFydQvYAxumGuhN86xs7qG7zQ0YWS25YwWPfXseHCuJdnYiIiIgkA3UXEREREZGJK0bdRdT7QUREREQkyhSyRURERESiTCFbRERERCTKFLJFRERERKJMIVtEREREJMoUskVEREREokwhW0REREQkyhSyRURERESiTE98FBGRy/m84OuNdxUC4HBAWga4PfGuZOSCAfD3QcAPMXgGniQZtwc8Kcm9Tg+DQvZQ+nxQU4Ht6YRwON7VjF/GYNIzoXQmpGdGb74dLVBfjfV5ozdPuZzThcnNh5KZ4HTGuxoZDRuGE4ewZ44qYCeivCLMwpUwqTTelQzNWmhtxJ6rgfZmaG+JBGyRgZwuyM2H3EJMUQlMKgHH+DmO6LHqV3L2BPbQWxAKxbuSicMYmLccs2BF5P9HKhjA7tsOtWeiV5tcXWo6ZtUtUFgc70pkJMJh7I7N0FQf70rkKsyytTBrYbzLuJzPiz19BGoqoLcn3tVIMnJ7oGQ6Zs4SyModu+XG6LHqaskeTM0Z7P7t8a5i4rEWju+PBOwFK0Y+mz1bob4qioXJsPi82B0vY265F3Ly412NXKsTBxWwk4Qt34UpnALZefEuJaLPhz2+HypPqGFKRifgh8qT2KpTUDwds/A6yMqJd1UjphsfBwqHseW74l3FhGZPHIj0Bx2JxloF7HgKBbGHd8e7CrlW4TC24mi8q5DhCoexZ47Fu4qIurPYV/8bKo4qYEv0WBtZt15/Gk6VJ20/foXsgVobRx7wJDrC4REHZVt7Nrq1yLVrrFP/y2TT2wN+X7yrkGvR1hzf5YfD2H3bsbtei9y/JBILoRC2fDd2+6akPK4oZA/U0xXvCgSwI+3P59XvlxD0OySXUDDeFci16ovjjanBAPatlyLdQ0TGQnMDdttzSXdsUcgeKKzLXUlNo8AkBl02FhmfQkHs9hcjV6xExlJXB3bbC0l1U61CtoiIiFydtdjdW6CtKd6VyETV24Pd8VLkBskkoJAtiSlJNiARkYnCHt8PDbqxXOKssw27Z1u8qxgWhWwREREZWkdrZJhHkUTQUAXVp+NdxVUpZIuIiMiVWYvd94bueZGEYg/tTPgRR/QwmjHjgOt/i7n75sH/3PsE9gdfgrjeL+aAGZ+EyXWwazMk57CUo5QOCz6HueEDMLkMTC/01ELDLuy+78OZBsAJN7+AWX04AX4z0O8m8XF+n3ZXDvY/3g1Ncd8QouRK21OibfdjqL4y8mh0kUTi78OeKscsuj7elVyRQvZYs1Xwyv/Gdg5oEQhVQ9wbCRww/Q8xK97Gvr15Yh1EAHDA8p9g7tkAZx/Fbt4NgTTInYOZfidm1jTsmYbIpN6z0NKQIIF2ov9uItE0xPaUUNv92LHHDsS7BJHBVRyFOUvAkxLvSgalkD3WbCf2zHPjqNVnHDHzYNVt0PBd7G9+cMlJj93xT+C4sLmEYN8fY/fFpcox5ACnQ2MoiwATZ7sfoLkeOlvjXYXI4IIBqDoFcxbHu5JBKWQnFAML/x1z3zx4+C7suf7hpgg+8iYm84fYh79/viXFwKQHMLf8MUybBy4v1L+E3fJNqLowxJIbbt+CWfQ6dmMVZsOnYfIU8J2A3V/HvvXm+Xm54c7tmNVTgfmYv/545O3tP8P++9ch5x7MHV+AafPBY6C3Fup+h332/4BvnDTrmHxMugPqawa/qhC+8Htc6bJxCiz6W8y6ByA3Ddp2wLYfYFf+DhP8CvbJJxn+73HepAcwNz0EpfMhMxt8lXDqUexr/wHeMEP/bv8b3luOyf8+9pEfXZyvmQIf24XxfxH7u6fOv3ihri3YF+ox6z4Ok4th/0exm9+M5rcs49pw1u9r3c+5YeafYdY/CJNLIdwCVU9jX/8uNPUfL9fApPsx6z8T2U+5A9BxDA5+B7tje2SSUW1P34AbB9vuh1PfNW73CURP0ZVEZ2vPYBSyJcKB8WRjUwe0ZId6IRCA009B789h8XI4t+fi37Peg5nuga3PXNwZT/485g++AucewW78BgTyYflXMQ/+Ch67D1vX71G36fdjbt2IffnD0BKERf+IuetnmPZbsEdbgQBsvx/r+A1m0UHso/8UOYiEO4HFcP9PwD4ZWY43DJmzYHoJOGP7bY2p8ElsQw9m1hcxqzuxR7ZD93CfqmZgzrcw738/HP5n7Iv7IW0VZt33MRlOGPjchqv+HufnmTUDOjZhj/4QvH2QcwPmxq9i7gf72M/BDvG7jaT7Ufr9mNtexr78CWjpA2fHCGYiE97V1u9h7+cMzPoG5sMfh4ofYP9rO7iXYtZ/FfPxedhHPglt5/elxV/EPPRlaPk1dtO3weuC/JWYwhIwRMJ91Lena6hvON9LorEW6s7GuwqRobU1gbcb0jPjXcllFLLHmmMRfOoIZuDrJ/8i0tLp34o92YJZ+AHYsud8a4kDFnwQzG7s0crI9GYK3Pp56H4Y+9uvw4VhpSuPYD/xMubGe+C/nro4f0cdbPpbaAhE/r33W9glr2MW3ARHN0Ze622AvgDYHuiovthSk3o3ptDC89+AE53nX9wBx6L83cRdE2z+EnzgO3DnLzF3BqDrJFRvwx58GCoqr/xWMwNuegDqvoXd+PPzAWE3ttmN+R9/c/n0w/k9sHD6e9j+oxRVv4ltdGH+8CHMpIcjrYBX+t3wXPtX4GyBzV+GKt/VpxW5kqut38Pez82AdQ9By4+wT333/HQ7sPVezGe/jVlzE3bTNjAlcOufQ8/D2Me/1m9/+Eq/BuLRbk+DtCgMt77hfi+JprsD+rQvkCTQck4hW4BwBTz/19iOAc0i3pPn/6cXyp+DZe/FTPsn7JleMDNh8fVQ9bdw4YZJ92rM1FR4+6mLBxSA8Bk4fQpWrgbnUxcPEL17sU2Bi9PZWugMQsaU8608Q9TsPwwtBtb9GJPyBLZyNzSdG9XXkLA6nsc+8ioUb4AZN2BKboDZn8EsfAje/AR2y87B3+dZiZlsYNuA0T1aNmObv3L5SdVwfw/XDFjzZczCtZCTD04XGAPOIOQ54VyU+0v3vX3pFRCRkbjq+j3M/dyF7WrnxktvQOx8DlvzTUzZanBsi+wPyzyw67eX7g8Hivb2NNz6LuzuR7MfjgeNKCJJwra3YKbOjncZl1HIHnNebP2OoW98rPlvaP8kLFkPZzZD0X2YKb2w8YWL06QUgNMJa5/BrBnwfuOC0KlLXwv5BuzAbeRSoGMY/T3Ch7FPfhrW/ynm5h9i3uWB7gOw+5vYt7Yn3oFh1HxQ/yLUvxj5aGmrMB/+Naz5Kuz7CHQO8paUXHBY6G2/9HXbDr2DfEHD+j2y4a7fYha2wRv/iK05ExkTNP1+zEN/Bi43EOUxQv0j7GYi0t9w1u9h7edyI09z6BkY9rqhpxeKcs9Plx/Z/rqbhygqBtvTcOu7YDT74TiwHQnYhUVkMJ1t8a5gUArZiSh8AHvkNOb6D0Lqa7DoPuh7FXuq30rkb4/ciLfnU9gDNZfPw3ZHdyi3jldh46tYPFCwCpZ/BXPrLzDd67CHmq7+/mTWuwd7aC+mdA4mz3n58IsAfe0QNpCWC/Q7MJlcSDMQuPwtV+Vcg1kwBd7+NHbX4YuvT76GedgwmIHPnEqJbPl6cr3E03D2c33tkZO+jAKgod+bMyEjDXznT2r7WiFkILMQqB98edHYngYabn3JKsEf9CHyDn9iXoHVEx8TUhCO/B48t2Pm3Y5ZOBNO/felo3j4d2Jr/DBtObSfgpYB/7U2XHn2V2Qjw+G4UoeYxg8tb8KWH4MvDYrKRrCcRJUL+YWDvJ4ORdPANmK7r9DM69+PbbQw7y4u6RtS8C5M4QjPZY0n0g20r/8ICm6Ye9eALfdKv1sYus5B1tRLu5OmXT/ymkSiZjj7ub3YcxbmvffSdTj7XkyZE6p3RkKufxe2tg8WfhRSLuucFTHq7WkQw60vWQV0Ji5JIkFPCHWkHWsmGzPzXmzBgD2vbYHTO+BCl8CWp7H1f4m59VuQ3gybtg6Yvg5e+z489FXMQ8XYvS9BdxDSi6H4Fgy/xb76+jUWF4Lmk+Bei7nuVmxNGwQbIXg35p4b4Pgr2JY6sLkw//OQ0ghnT119tsnCMRfz0Seg+wU4/ia2vRVck2DWRzFLpsKJ70FriEFvgLJnYPt/wYe+inlvGHtgfyTMrv8Y+MKM6Egb2out7sUs/3M4+Q/Q7oaFf4O5buqAS85X+N2a6uH4C7Dm05ibnsPu2gsZq+COL4EZd318JBlddT9XCW88Dh/+HOYBi93zJniWYG7+MoS2YnftOD9dHbz+Q3joK5iHUrG7noMeB+StwBRVYV/6bRS2p8bL6x9ufcnKJvMZgkwowZFcLo49heyxZqbBnT+9/Ea40JvYn3z44g0/tgoO74K710H7z7GDjfbQ8G/YR89i1n0Wc+eHINWAtx7qt2L3jjD8nvoudv93MTc/jElPiSz7P5/HdtyFuf5rmOwCMD3QtAOe+SK2omtky0lE4RPY176HmX873PA1TGYWhLuh9SBs/Qx216Yh+p9bOPW32Ge6MOu/iFmUCm274I2/xl7/S0xf97XXY+vhuT+B93wd85kjEGqBmqexz/wr5sEBI5YM9rv9+9eh/vvY5/Mw63+KudEDbTvhzb/Dun91+TooMtauup+zUPG/sE82YNZ9FPPAn0OoGaofwz79/186PF7997G/qsPc8lnM3Q+AJwTt5bD/n89vt6Pdnr4x2AcYfn0iMuEYa230m7ROfgcCSdoX7cwx7IEkb30YD2YuwCy/8ZrfZrc9HxnKJ1FkPID5k+/BGxuwu4YYAnCcMevvgYLRdHaVMdXZhn319/GuQq5FWgbm7o/EdBH2rZehoTqmyxCJCrcHc+/HR/7+nOVQ+mD06jlPLdki0ZK6AW5eCtUHIyMLZF+PWftFCD6PPVwV7+pERERkDClki0RL2As5d2MWfx7S06CvAap+iX32X6BHfaBFREQmEoXsgZyJOV7phDPScWOdcVyl/bvhqfeNv2HDRyJBx/2VK/CkxLsCuVapafGuQGT8CMVmCEAN4TdQRk68KxDAZI3wd8jMjm4hcu2M0e+QbFLT9Zslm8LieFcgIlehkD1QfhFk6GATV04nlEwf0VtNWeI9VnXCmTIV3J54VyHXyMxfEe8SZLg8KZjZi+JdhYhchUL2QMZgVt4UaY2TuDBL14JnGA+CGEx+EcxcEN2CZPg8KZila+JdhYzE1Nkwb1m8q5Cr8aRgVt8eufogIglNfbIHU1iMufEu7N43wOeNdzUThycFs2Q1TJszqtmYZWuwbg+cKoewHqYwZnILMNdvgPTMeFciI2QWXQ9FJdiKI9DekrAPeJhwjAPS0qGoBDNnsQK2SJJQyL6SSaWYd30Ymuqgu0NhLZYcTsjIgqKS6Nx4ahyRsDBrETTVgq939POUK3O5IacgchVBkl9RMaZI/X1FREZLIXsoDgdMLov8J8knNQ2mjq5VXERERGQkFLJFRGR88SyGybdC+uTInUehDujdB3WvQUiDbIrI2FDIFhlzBlJXQNHNkD4JHH7oPQaNm8DbfXEyBQWRa2eKoexBYB/UvRDZVlyFkJ4Dup9dRMaQQrbIWEvdADPuAN/OSAgIp0PenTDtU1D5M+gNKCiIjJSjGFKIbDddFx4wcQY641mUiExECtkiYyobJm2AwFtQ9RxcuJ/W2wAzPg8Fi6DmgIKCyEiF66EPKHoQnHugpxL6uuJdlYhMQBonW2QsOaZDuhu69l8M2AC2BbqbIH1GpKW6f1DIXwIpWfGpVyTZ2Hqo/hV4XVD4EZj9NzDvz6BwVrwrE5EJRi3ZImPJmRF50FHBn0DBZX8E2xT53wtBoWh9JChMcUKwFlo3QXPFWFctklwCJ6DuBOCClGmQewdM+gMI/At0dF/17SIi0aCQLTKWQr1gw9D2S2hvv/zvtg8u3NOooCAySkHoq4BGN+T+AaTmatsRkTGjkC0ylsJnoTcE6WXQePJioB6SgoLIsHnWQvE06DoB/g6waZC9ARxd0NMU7+pEZAJRyL4ab3fkiY8BPV44ZlwuyMiGzOzoztda6GiF3p7EemJn03egcCkEC6G7LlKbIx08U4AKaG8A11zIK4Teegh6AQ+kWTjxJDS/Bb5gvD/FRampkJUHnpR4VyLR0NGKPXM0su34++JdzQj8HpxpYJyRrlkA9l8g3AvhUHxLGzEDaemYSaUwY762NZEkoZB9Jd2d2P3bobkh3pVMHLkFmGU3Rufx3NWnsUf2RAJ2wnktStMkEIcDymZhlq4Btyfe1chInTyEPbI30qUpqbXFu4Do6+nENjdAxVHM2jsgtzDeFYnIVWh0kcF0tWO3PKuAPdbaW7BvPA+NtaObz6ly7J6tCRqwx6lwGKpOYbdshIA/3tXISNRXYQ+/PQ4C9jjn82LfekXbmUgSUMgehN37hnZg8RIOY/dug9AIL+t2d0SCgsRHd0fkCoIkHXt0b7xLkOHyeaHiaLyrEJGrUMgeqLMN2nRzTFz5euFc9YjeaitPRvpiS/xUnRr5SZLEh88b2fdJ0rCNdfEuQUSuQiF7IB1oEkPnIMPbDUfXCN8n0RMKgldP2EsqSXmD4wSn7nAiCU8heyB1E0kIdqSjAOj3SwwKbSKxpb7zIglPIVtEREREJMoUskVEREREokwhW0REREQkyhSyRURERESiTE98lMSkIeBEJqh0WPA5zA0fgMllYHqhpxYadmH3fR/ONAAOmLcHVk8AACAASURBVPFJmFwHuzaDRu0UkQSkkB11Drj+t5i7b4bgTuzP7of2AXeBz/lXzIcfBBrg8dXYysC1zT9mB5ci+NjbmOBXsE8+Gd+aRjq6yJgbq0CgUCETgQOW/wRzzwY4+yh2824IpEHuHMz0OzGzpmEvbFPT/xCz4m3s25shWXYXIjKhKGTHiu2B8ErMwlnYHaf6/SEbltwFgR5wj2TGiXhwScSaxsJYBoKJ+h3LhGLmwarboOG72N/8APq1T9gd/wSOWB+yHOB0RMZ6FxEZJYXsWAkfhxNZsPgDsPO7Fw8W6XdiZhk4/gYsWR7XEmWU4h4IRMYZk49Jd0B9zSXb0zvCQcANd27HrJ4KzMf89ccjf2v/2f9j787jo6ru/4+/zsxkX8jGEpYAiizK4sIiCIiKWpfWBXAB96rf1r1VW2trba221mqrda3+rHWvUqlSVAQ3UFZlFUH2PSFA9j2ZzPn9MUGSsGQS5s5Mkvfz8chDuXPm3E/u5N77mXPP/Vzsc/fXvS8Ket+EGXMpdO4GvjzY9h7280dhz76HuETB6XMwx87BfpiDGT0FOmfC8suwsxZApwmYsTdCVl/wlEPObOycB2GbnggsIoFRFuAYL3b1fzH9J2C6PIHNrgEM9J0ItbOwm1yYgY3fY5o4sAdwcuk0ATNqMnTrB4nJULkVNryC/exFKK9/1oqBAb/EjJkEKXFQsBi+/NuBsxCa7C+QE14bFayE4Ii3cVN/NyKthG89dlcZ5qg7MMOLsavnQWlFo0Y1MO9irOstzLErsa/80X9lx1dctx8aOOoBzKQpsOnv2HfmQdQgzJi7MVP6Yl++CgrqXQqKvxhz2sfYj6+EvCpwF0HnWzFX3AW5L2NnPAA1aTDkbsylr8HrF2CzK0O3TUSk1VKS7aS86dhdt2GOOwmyF4LpCseNgLXXQtXEA9sHcmBv6uSS1AuKZmLXPAXlVdBhGGbk3ZiLwb7+Qt1cXgN9HsJcMAG++wv2o68hfiRm7FOYWDdk7wsokP6aOuG1YcFKCI50GyshkDZjD8z6GVz4CIx/FTO+BkrWw/YvsCtfgk1b/c0qdkFVjX9aXtH2htOnTC8YPRnynsZOe7TutQXYnHLMDQ9jRozCzvxif3t3Hsy6E7bV7SemC1xyK5S+hH37ftj3ENmtq7FXfowZeS68M83h7SAibYGSbCfZbfDtEhg1AT5fCEk/wnTbA3MXQkyjJNt0gXEBHNgPd3LBwsbHsBvrLdo+H7vbg7lmMqbTS9hcr/8kNGoS5P4VO/2ZumRvMbYgDnPNbc3v77AxtWVBSAiOdBsH+ncj0loUfYB9+VPIPBV6DcN0HQZHX48ZMBnmX4mds+jw748+AdPZwKIZDfe14vexOx7EdB8Ori/2DwJUfd3wi2jUcEyPWPh62v79CcC3GTZugBOGg3taOzrOiUhLKcl2VC2snQan3YPp9SC208VQNB27sxqOatQ0WAd2Ty8YcSdmwMnQIQ3cHjAG3F5IdUOud/9JaP6HDUebd8+AvJub3197dqQJARzZNlZCIG1SJeR8BDkf+S++xQ3FTHoTRtwNyy6B4sO8NSbF/wSIsrxGL5RCWQV0TGm4uLrRVbeYdHC74eTpmBGNujAeqN2AhJsHMi/CDLsEso6DhETwFkL+Slg/Dbt0OpS383OTRAQl2U4rnYndfD9m8C2Y9GNg9R0Hn0YRlAN7Mpz5NmZAAXz5e+yOzVBd5Z9zOPkm8EQBVXUnIQulexu+3bcXW2Yxze2v3TuChOBIt7ESAmkPKpZgv1mK6dYHk+rGFh+mhmVVof8Ym5AO7Kr3QiIkxEFl4eHXVV3ov59iydXYFTsOfN2W6ktrWMXD0Ocw40+H/E9g2SPYgnzwZEDmqZhhf8f0SsO+/v9U6lTCTkm24/Lh20/gop+CbyV29XcHbxaMA7t7BKZ/F/j6Wuzib/cv79yoXVWh/2a5mCR/fPuYRIgB9pXtDrQ/aag5CcGRbmMlBNKmpECaB/IbDQAQDx2zwO7GltaNUnhrwBN7YBfVS7G5FtP3fJj37f6//+TzMN3dsGrR4e8XqV6E3VGNyRoCcz7X/hNpsu7BjD8Nvrsd+793Gn4+K/+JnTMEBkXqSUolItsbJdmhsPFl7Jo4TOl/If8QR+yAD+z20CcXEw1uoKqs3sIoOOZM/+XT79e1DJvrw/QaCYu37l+edAomwwOlzezvcDG1aUFICI50GyshkLbEdQzmsn9D6Yewdj62MB88neCoyzADe8C6x/YfQ/euh6iTMSeOw+4oAO9u2JMDdit8+QZMuhkzwWKXzIfogZhT7oTaudjFCw4fg82Gz56AyXdjJmdil86GUi/EZ0LmWAxvYz/93PFNIQeTASMug+rZ2NmHmAZXuQK+arywqZKOBgY8h7mgL7x0pv8+mO91hEvmYxKfwr70BNhAqzkdqkTkFKz3z5hjP8fO2IY59Vro3AUq18FX92MXzt8/Ah9wtbB96wqgTwx0uhgz5nrI6gdRNVD0Hax8BLtgXr02qlgVDEqyQ6FmEby76PBXrgI+sNce+uRSuxS7vQIz5BZY/zsojIIB92BO7NHwspndAvP/AxN+iRmxCbtkCcSPhPNuokHDQPs7XExtWTASgiPexkoIpA3xrcN+9him3+kw7D5MYhL4Sv1zbedej108c/9+seFR7PJHMae8hImPgcIX6kpaWtj0W+zUXZjRl2Em3AK1e2H769j3/tKwfN+h7HoS+8oWzOgbMOMnQqyB8hzImYtdqilYYeM5HtM9AXbOgrJA54IEWNJx4zSoeAGOGwK5S/a/PekcTM9omDvd/7fX3GpOB5SILIMT65aPm4H9eBLkeeHY32POfB5TOBa7Jp/Aq4U1Wtdh+wQy78BMvhPy3sTOfBjKPZB2AiajKxha9jvKISnJjiSBHtgPeXLJgff/D865H3P9aqjNgx3vYac/jrn0nnorsrDh19jppZgxL2HGxUHxClj0aywv7p+TbQPt73AxObzNwikoCUEQtrESAmkzimDNM9g1zzTdtHYTzLwYO/NgL9bApiewm544TAc18Oko7KeHeHnv/7Dv/q/pOCR0YjIhGija2egFD0TF8P3Jy3qhpu5eFtMrsJKO1XOx6/MwAy6EOUvq2rmg/0VgvsKu2dqyak6NS0Tue9SzKxtm/gp21c3PXPon7MDPMf1HwZoZBFx5qr6m+jRdYdwtUPYS9o376sX/Sb2BblWsCiYl2UHngyUTsUuaaLbhNuyfDrI8kAP74U4upZ9jp35+wGL75+caLamCNb/Drvldw8VLezb8chxof4c94bVVQUoIgrGNlRCISHsVNwFz2+P+qXcAtfOxz06CYl8zSjpWwKr3YfD5mKw/YjdXgOkNx50E235V11cLqjk1LhG5T8VS7J6a/f+2O6HYCwld9o8oN7fyVFN9Rg/HdI+GxW83jL8+VawKKiXZIiIiEvmqdvkTvw7dGi3/BPv6BWBccNwjmCH1XmtOSccd/4XCq2DgGNg8CzpegOlSATM+rOurBdWcGpeI3Ke2stF0DwvWgmvfN4UWVJ5qqs+YtINXFqtPFauCypkk27ibbhOpjKvpNuI8Y5puE8z3SXDpc2hd3K34mN1eeaLCHUHoeZdhd5RjepwF8W9BeV1G6dsLO/YCbuhe2vA9zSnp6FuBXb0Rc9JFEPsZHHsBVH2K3VDgfz2U1ZycqO5VlQ+1BhIzgEPcM9VeK1a5op3p1pFe3XGOdBsScQnhjkAAExvfsjfq84sMLf38JDziEiHKmZOMOCQlPdwRhMFeWPwWRJ+JOeui/dNDDqeupCN9z2/Yfl9Jx+31Szp6YfW7EH06pu/pmAG9YcN/obIuma+r5kTWECjcAHmNfvJ3ETQBV55qhurF2J1VMOAyiDnEQEgof8dI4lDe6sxItqsVl3JL7+QfIfDWNN1WnNOlR4veZjp3x27f2HRDcU5yKsQnhjsKaQ6XC3r2hQ2rwh2JBMj07h/uEMJj65+wnx6FOf3vmE4/glWfYgvywCRA2omYQf2g6hPw1iXGzS3pmPceNufnmHF/gvi9MHPu/tdCWd4x4MpTzWCz4fOnYPJdmMmx2MXvQ5kLUo/HdNyGnf12+y1h6XZmYMiZJDsmA8pa6bwdTxSm72Ds6qbuXBTH9Djan6i1RNdekLIKChvPv5NQMceeFO4QpAXMgBOwe3O077QCZsAJkNYp3GGESRksvgq7YyJm2CQ46V5MQoL/sep5K2HVL7BL39s/lYRmlnS02+DbxXD2aH8Fp22NbloMVTWn5lT3ao6cJ7CvZWPG3oA5ewJE10LhKlj+5/3Je3usWBWd4Ui3xlob/AePFn4N2a27xItduRA2rQl3GO1PZk/M0LH+u6hbqrIcu+BjKFKyEFIuN2bwydCrb7gjkZaq9foHGLau19W8SJTYAdP/BOjeOySrsws/hl3bQ7IukSMSFY05b0rL33/0bRDTJXjx1HFmJDu2uyPdhpIZfDJ0643dsQlKisB7qHo3EcLlAncrvRHGZSAuEdO1F3TqeuT9xcZjTj0Pdm7G7toBFaXgi/CC3e4o/2fYGnk8kJyGyeoDCUnhjkaOhNuDGTQCjh0K5SVQ2xbvcGqlYuN0r4OIE1zREO3MlSGHkuwuEJ0G1fmOdB8y6Z0x6UdyK6+EjcsNPfpgevQJdyQirY/bDUkpTbcTEWntEvs7VlnOuaGz5MGOdS0iIiIicsQ6DHKsa+ceRpNyIuydQ8tvg5VmiTkeOg6FuM7giYXafChdBLkLoFafgYiIiEgDniRI7Odc9471HJ0BHQZD0QrHViH7GIhKh+rVUDwXvF6IyoKMM6EHsGV+uAMUERERiSzpo/1PsnSIs49VzzgNir7h4M8UleCxUPoJNHjQ1SaockPvYRC7ECr1GYiIiIgA4E6A1MbPjg8uZ5PsmE7+bwl5c5tuK0fGpEH6GdChN0TF103iN2B8EO1Ski0iIiKyT+YPHXuc+j7OJtkAncZD6Rqo2uP4qtqvWOjyY0guhz0fQEUe+LzgHgI9x4JxA95wBykiIiISfskDQ1Kgw/nCvMYD3S9v3Y9aj3SmFyQnQ/40yF8FFTn+LzUavBYRERHZLzodMi8IyapC8/SLmC7QY3LIVtf+eMAAvqp6y9yQ1N+/XERERKS9cydA1jX+/4ZA6LLehD7QbZKjd3G2W3Y7lNdAyqkQHQMmHjqcD6mp4Y5MREREJPw8ydDzOv9IdoiEdmi5w5C6bxBxIV1t21cE2W9CdRYc/Rvodxt0qIGdn6lMuYiIiLRvMZ2h908gNjOkqzXW2tCnYdV5kP0OlG8J+apFRESkaXbhx7Bre7jDEGlaVDTmvCkHecFA6lDofC64YkIeVnjmbkSnQ68bIH8B7PkEaivCEoaIiIiItEHRGdDlh5B4TNhCCOMEaQNpoyDlJH+ynTcPasvCF46IiIiItG4xnSFjnP+p42Gu/hD+uxBdMf6NkT4GyjZA0Ur/f70l4Y5MRERERCKegYxT/bWvQzzv+nDCn2TvY9yQ2M//A+AthsocqCnyTyfxVYY3PhERkfYkaimgOdnSCrhioNPZ4Y7iAJGTZDfmSYbE5HBHISIi0j7FvBbuCERaNT0dRkREREQkyJRki4iIiIgEWYini/igaidUbmn0CHARERGJKDV7wx2BSGCsFwo+PvTrUR0hthd4OoQsJAhVkl22CrKfgdzXoFZVQ0RERCJecSoQ+gd4iDRbbRmsPLPpdrG9IPN66HI9RHd2PCyHn/hoYcdfYdM9/m8ZIiIi0irY1alQoCRbWgG3xZycG3j7qHTo/xqk/cC5mHB6TvaG22HjXUqwRURERCQy1OTBN+f5Z1g4yLkke/cbsPNJx7oXEREREWkZH6z7Pyj7xrE1OJNk+6r8o9giIiIiIpHIVw4b7nCse2eS7D1TdVeyiIiIiES2ws+g/DtHunYmyc7/wJFuRURERESCx0L++4707EySXbnZkW5FRERERIKqwpm81ZkkuzrHkW5FRERERIKqarsj3TqTZDtZeltEREREJGhqHek1xI9Vl3avyg3lHqg14Y6k7TJATC0k1Pj/X6QlvC4o80CNs49TaPeiff591a3BKZG2Rkm2hEa1G7sxGfL19LCQianF9C6B9MpwRyKtic9gtybCrnjw6VtaSLgtplsZdC/VF2ORNiRihih2/BdixoEZB+Y08JwJXa+Ga/4NO4P4wMicpfCHt2CjL3h9HonVr0LMj+CDmnBH4qBqF3ZFuhLsUKtyY79Lgdy4cEcirYWte5R2doIS7FCqNdhtidj1HcIdiYgEUWSNZLvgitvg0s5QWwlLPoPHnoevi2Dx/0F8EFaRswwenAEjLoajI+YrRttmNyVDtTZ2uNhNyZjUKv9laZHD2RUPRdHhjqL92hMH6VW6+iTSRkRW5uOCfkPg/JFwwWnwwP3w236w5n345DDHnOq2PArc2tW4ID823FG0bz4DuzWaLU2zuuoRdvoMRNqOyEqyG3PD8P5ABWwr8S9a8CzEXApvLoIpN0H62dDnGagBtn8FV9wCHX8AcefBCffCG/VKH375FAx/FaoL4Owz/VNTPJfDvHrTUZrqY5/ijfCL++CoH0Hs2dD1Srj8Ddhrm99Xm1bhAd3PE3a2PLIuWkmEqtDfSdhF0r6qmzGltfBE5pXaCNqbD8LCtlywbkirN1fEVwA/ex5+fTM8nAXF1VD8FYy/F6qHwd/+AJkV8OrLcNUdUPos3NgVhl0F79XCRZ/Ci0/DGA8YD3Sp2wr5AfQB/qdvnn0nbMiCX/0MTkqB3O0wexsUAxnN6KvNUxWRyOCN7O/TEiE0Dzv8ImlfjdDEReQAEfq3GnFJdnUVlFaArwqWfAy/WwxpI+G0ekm29cLlt8GtQ/YtgL/+ETZnwYLfw0lR/sWn9YNd18GDb8FVP4PYZMhMBOOCzp2hV1S9FVv418sB9GHhlRfg6zSY/RiM2xfXCXBJc/tyZAuKiIgcORNbqwuR0jrEOlPn+khF0FdmwAt/+AkknQMdLoQzngH3UHj759Cl3gCLSYDTB9R7Xzl8sQH6j4Yh9RJnVye4bBDsWgXrmtr+gfZRDh9/C33HwehD3YkZjHhERETCKUE3PEnrYBKCWIYuiCJrJNsN1/8Sru4Kbjd0zISjUw4sG+qKh+R6Xw98ZVBYCxmpjb41GOiYAnYzFDbxdTzQPnxlkFcLndMO/Q0lGPGIiIiEVWJkJi4iB0iMzC+EkZVkG+h5DIzu3by3uRIgxQ0bC8BHvcTWwp5CMImQ0sRUw0D7cCVAugfW5DdqF+R4REREwsrjg+RqKFZZR4lgbgsdqsMdxUFF1nSRloqHMX3guy9hRb0vM77d8NY30GUQ9HX7l0VHg62GAyoCBtpHPJw5ENZ9BnPLjjweERGRSGUyVLNbIlxaJbgic3pAZI1kt5SBa6+Gf9wLE++D310ImZXw2qsw2wPPXLL/JsOsnpBUCa9Oh47HQXQM9O8FCYH2YeDK6+FfP4dJd8I9k+CkVNi7A2ZtgXtvgaNcgccjTXHBSW9jzj6l7t8WasuhaDWsfg47/wNoU1c0XdDrKuicDYtnqfyhtAPx0P9mzLALoXN3MBVQthN2LcYuewI27wpxPB3h8q8x3ruwU6eGeN0RKKMStiSp8oxELNMpcr8Ito0kG0gdBh//Ee55Ge68H0o90H8wvPwbmFKvXF7ySHjyfPjdKzC2GGwXmPMqnOIJvI/4fjDzCXjgJXjyb5BTCamZMP5c6GCaF48EyG6BWb/DFvkgqhP0uwFzyj8widdgP/gk3NEFkQt6XoM5/mvs17NAN8hKm+aCIc9izj0VtryCnfUV1MRBSh9Mz/GYo7KwIU+ypYEoH3SugJxgPHNZJMgSayClKtxRHJKx1gZ/rGxhT6jaFvRupRUqiMGuTj2CDupGss/sgH3xB7CnLus0veDKuZiOH2Cf/AlE5nSsFvDAqR/7k+yn7gpekp1ahTm2IEidSVtl53UJ7QpNf7huFsb3KPblv/tvYqnP5QFfqC9VhXkk220xJ+eGfr2HU+XGLskAq9FsiSxmQAGkBSHJTj8PBs448n4aaTMj2dLO2J2QuxcyO0KsC6r3nZ0NdJqAGXsjZPUFTznkzMbOeRC27anXQQwM+CVmzCRIiYOCxfDl49jjp9Y7uUbDj1Zh0p7Avvz0/qkbpgtcvhhTfQf2P9Pq9RngulPPxZxxO2T1g2gDFTsh+z/Y/z0Fo7/EDO8B9MP8coq/feHz2OfuPzABEWntTBom3gU5Ow7+990gwQ50346C0+dgjv0cO2Mb5tRroXMXqFwHX92PXTi/3jSsgx0H/qZZWo3F1EL3MtieGO5IRPZLrQpOgu2gtnHjo7RDCZCU7L9iUl7v7Nz5VsyVf4XYRdgZV2Cn3oMtORFz6WuYrvtmwhvo8xDmgqth11PYty7HfrkAxjyJ6XQEd6QGsm7XcXDxs5D8DXbGFOxrl2E/ehpb7AZ3Dcy7GPv1Jih/F/vccOzTw7Gv/lUJtrRNvvXYXWVw1B2Y4eMhMe7QbQPat+uJvxgzrg/2k0nYJ0di522BU5/H9E+ra7DvOHAt7H4W+9Zk7JeLYOxTR3YcaKNMjzKIb1M3wEhr5vFh+hSHO4omaSRbWgmD8SRgo2vBkwH9f4k5qgo++8f+Gx9NFxh3K5S+hH37/v1TSLauxl75MWbkufDONP9Uk1GTIOcR7Ix/1CWwX2HzojDX3tXC8AJcd/RxmAwLHzwA6/YdIBbAd/s62gVVNWDLoGi75mRLG7cHZv0MLnwExr+KGV8DJeth+xfYlS/Bpq3+ZoHuX/W5smHmr2BXXYmnpX/CDvwc038UrJmx/ziQ+1fs9GfqjgOLsQVxmGtuC8Uv37oYi+lXiF2ZDrWaNiLhZY4uhujIP0FqJFtaB9dxcO1azF0bMHcsxPzgHFhxC/ar7/a3iRqO6RELa6c1nKPt2wwbN0DX4eAGok/AdDawbmbDEeI9H2LzWjhSE+i6q7+FPAOjn8EMPR86dm7Z+kTaiqIPsC8Pxb50Dfaz5yG7FI6+HnPpbMypI/xtAt2/6qtYit1Tr4aq3QnFXkjo4n/C2ffHgQ8bHgd2z/A/cUwOFO/F9Cs88AlxIiFkepb4q960AhrJltbBtwlm3IktshDbBzP8l3Di45idP8CuyvG3iUn3Pyr05OmYEY3ebzxQu6GuXYq/pmZ5oxsBbQGUtzC+QNft+xY79VoY81PMKU9hzoqG0hXw1YPYhfNUsk/aqUrI+QhyPvLvAnFDMZPehBF3w7JLwAa4f9VXW9lof7JgLbjqsvF9x4HSvQ3f59uLLbPKIw8ltQrTpwi7oYOOVxJ63cr89we0EkqypZUox+Z+VVddZBF26xbMdf+GcXfC+rugCqgu9N8oteRq7IodB3ZhS/3TL6oK/TVf41OB/P2vu9Ig3kBR/ff4wDS+4BPj33Pqj6gFum6Aok9hxqdYoiF9KAy5CzPun5jS0dhvVAFEwiSSpgBULMF+sxTTrQ8m1Y3d1Yz9K1D7jgMxSTQ4DphEiAEi8ynNkaFTBSbKh12bEll/N9J2GTC9iyGzpSNh4aHpItI6Vc/HzpkBSRdjhvSuW7YIu6MasoZA4QbIa/STX1dvt3oZNtdC33Ma7gEZ52Iy6l9z9kFJLiT1aHgpOu4kTEaj76eBrrvhmyBvPsx5BirjoGN3wIK3Bjx6XJG0BymQlnGQ5fHQMQvsbmypr4X7VxOql2FzfdBrZMPlSaccuH/LgVKrMIPydDOkOC+61l+CtpUl2KCRbGm1LKx9HLvrHMyw/4Pl90B1Nnz2BEy+GzM5E7t0NpR6IT4TMsdieBv76ef+B9vMnwoTf475kcUuXwLxIzCjJ0FF/cmZXlj7IYy4FjPqfezipZAwFM74GZhG10ltgOtOvQZz7jBY+wk2LxtsCvS7FWJ2w5YNQC3sXQ9RJ2NOHIfdUQDe3bAnJ2RbViRkXMdgLvs3lH4Ia+djC/PB0wmOugwzsAesewzyawPfv5rDboH5/4EJv8SM2IRdsgTiR8J5N6F5EAFK8GKOz8NuT4AdCaqjLcHXqQLTuwQ8rbPElpJsab186+CL/8KkiZiBT2GX7oBdT2Jf2YIZfQNm/ESINVCeAzlzsUv3zdu0sOHX2PdKMWNuwlwaCwWL4ItbsMf/p+FczJwnsB+kYsb8AzMy2t9u/q+xUa8dOGczkHVXrMEWnYk56T5McjqYMtizAKbfgd1U4m+z4VHs8kcxp7yEiY+BwhdUJ1vaJt867GePYfqdDsPuwyQmga8U8lfC3Ouxi2fuz3cD2rebo+44ML0UM+YlzLg4KF4Bi36N5UXNyQ6UsZisUuhcgd2ZALlxegS7HLmMSkyP0lZ/pURPfBRnHfETH0MpzE96c5Ke+ChNqTXYhap2E3aR+MTH5qhxwd5Y7N5YKI4OdzTSmiTWYDIq/ZVDYkJc4UdPfBQREZGIFuWDzHJMZrn/psjSKCiNwla5wWvA69K0knBw+yKr9KLL+h8oE+2DxBpI8LbaKSGHoyRbnBVJO3V7ps9BmqK/kcjQ+H6P1sxtoUM1dKjWn5e0S0qyxVmt4IlM++2BN3u2zVueWtXnIGHhsv5RyBoVnQqr6LY3mifSXuloKs6K90KsErxwM2lV4Q5BWoNU/Z2EnfZVkTZDSbY4zvQqCXcI7VtKlZInCYjpUeq/xC/hEV2L6dp6nmYnIofnTJJdW+xIt9JKpVdijirWnM9wSKnG9Ctqup0IQGwtZkCBf9qIhFZs3QM3tO1F2gyH5mRrJEQaySzHpFRjd8dBuUd1VJ1kLMTUYlKrdOlZmq9DNebEvZAbhy2N8leDEOdE12KSq/1ly3QVQaRNcSbJNjGOdCutXJwX01NTR0QinscH3cp08UlE2gcT5Ui3zgxRxPZypFsRERERkaCK6eFIt84k2XFHO9KtiIiIiEhQxR7lSLfOJNkdJzrSrYiIiIhInwW+9gAAIABJREFUUKX9wJFunUmy038EMd0d6VpEREREJCjSz4P4/o507UySbTzQ70Uwbke6FxERERE5IlEZcMwzjnXvXG2m1LPgqEdQcWQRERERiSiueBjwBsRkObYKY611tjBn3nT47mrwFjq6GhERERGRJsX3h2OnQsJAR1fjfJIN4C2C3H/Brleg/DvwlTu+ShERERERADxpkHQCZN4AGRc7Vhu7vtAk2Y1V71KiLSIiIiLO86SBJyXkqw1Pki0iIiIi0oY5d+OjiIiIiEg7pSRbRERERCTIPKFdnYWKPP+PiIiIiIjTXFGQmAmeuJCuNjRJdu4yWP8u7PgSaqtDskoRERERke/FpUGvM+GYCyHJ+SeTO3vjY20NLPm7P8EWEREREQk3VxScdCv0vcjR1TiXZFsffHY35Cx2pHsRERERkRYbeBUMucGx7p278XHVy0qwRURERCQyrXoVtn/hWPfOJNlVRfDt6450LSIiIiJy5Cwse8b/Xwc4k2Rv/ABqqxzpWkREREQkKEp2wK6ljnTtTJK9e4Uj3YqIiIiIBNWebxzp1pkkuyzHkW5FRERERIKqdKcj3TqTZNeUOdKtiIiIiEhQVRU50m2In/go7VpiB8jIhNh4cLnDHU0bZqG6CoryIG8X+HzhDkham5g46NgVEpLAHRXuaNo2bzWUFsGeHKjRvUwibYmSbAmNbkdBp27hjqL9iImDpBTI6AIbv/Un3SKBSO0IWX3B5VyFV6knJhYSkv0DEJvXQElhuCMSkSDRUVScl5GpBDtcYhOg97FgTLgjkdYgLhF69lOCHQ5uD/QeANEx4Y5ERIIkQo6kLuj7BEz5Ai57ChIPEla3e2HyFzB5GnTW5ctWwxjokhXuKNq3+ETokBbuKKQ16NxdX8jCye3RgIRIGxIhSXYdWwH2WOjZo9ELidB7FHgrwhKWHIHYeIiKDncUkpgS7gikNUjS30nYaV8VaTMiLMneDDuyodcZUH8wJWYUZALbl4QrMmkpJdiRQZegJRAeXSUMO+2rIm1GhN346IUtH8OYMyHtFcjzAgZ6nAW18yHHQO/G7zGQchYMuQQ69QJ3BeTPh+XPwe78/c2SToUTroTOvSHKQFUu5H0E81+Gaht4m5SzYOD5kNEb4hKgOht2vgfL3oGq+lUcoqHnjTDoLEiMhZLl8M2r0OcJ8D0Cn88MfvwRSZeeI4KmAIiIiIRUhCXZQPGnkH8F9DoO8laA6QS9hsCOX0HN2Qe2T70CzrwOCt6FhU9DTQr0uQ5OewQ+vhnyqsD0gTH3g/0IFj4DlT6I6w6dO+8fyw+kDQbiu0HpF7D1daiqhoSBcOyPYSzw8VSwde26/RxGnQ5b/h98tQZiBsKgeyHWDXkOxC8iIiIiESPykmybDVu+hePOghUrIO50yMiHlSsgqlGSbTLg+CugYhp89iR465bnboSz/gnHjYW5syHqGOhgYdHTsL20rtFy2Favr0DaYCH7Jciuv2wZFHjgB+dDyjQoqAXTzR9/3vOw8O26xPsbKPLAuTc4E7+IiIiIRIwIHAf1wfbZEDUaOidBzzOh7FPYW3NgU89g6Bjjb++tt9xuh+ytkD7Y/xvWbIAiA4N+C/3GQUr6gX0F0gbA3Q0G/gbOmwqXzIbLPoVzrgJ3V0iqe8CK51hINbBjXl2CXad4HhTVOhO/iIiIiESMyBvJBqj4AnbdDEdPgeSesPWPcLCH1kWlgNsFA56BAY1fdINvm39KsG89zLkXBl8OA++DoVFQ8R189xysWepPhG0AbUiEoY9DVhF88zTs3QE1NRAzHs6YDC4PUA1RSeCyUFXcMCRbDFX1su5gxi8iIiIiESMyk2yKYMtCGH052LWwZdPBm9UUg68W1t0DG3MP0qAM9g0cly2EBQuBKEge6J/3fPxDUDkFNuUH1sY9GLIyYO298N36/atJpeH9fTUl/i8FMcn+32UfkwwxBsodir9Nsex4802OfnArNTE9+Nv0KdzeveHNe6Vz3qfPLSvJJYmbXvwpTw/Xo9pFWiNbtJLzx73PB9WHbxfVfwxLpo5m0BFdg/Wx4NHnGTfzaGbNPJNTI/QsKCKtX+QeXrLfhW0xUPExlBxsGBvwroQ9NdCpP6xcvD8hPawaKF4GK96Ao/8IHToDjZPUQ7WJ8o9Q15TXa+uB7qc0TLK9q6EQ6D4K1ry1f6Q5+RTo4N6fZDsWfxviiibJnc0bM/O55fp0vk+jbSUfzVhPSVw0UZXhDFBEjpRJ6Mm9f7mIa/cd6mv38s+HvuST7kN58bruxNYtdiV1pKcK5YhIKxG5SbZ3BXy54vBt7G5Y/gqccR2c3hHWz4cKL8R2hLRhwIewbDEkXgQnD4Tti6A4F2wy9LgCovIgt+7uwUDa+FbD7mo4+grY+SSURkHW9XBMl4ZTNuxOWDULxv4YTvbBxn3VRc7zl9uzvuDH31a5M7jg9Cqmvr+ab68dw+C6LNsWbuS1L+Ds8T35bMau8MYoIkfG04FTxnfY/2/vNuY+Bp91yuTCs/qTGL7IRERaLHKT7EDlvwazdsKgSXDS2RBtoHI35H8N6+oS0OpNUDYK+v4E4lPBlEPhcpj3R8guC7yN3QMLfwvDb4ZzZ4CvCPZ8AvNfgdPqVQ3Bws6/wvwyGHw19IqBkpXwzaPQ95GGI+HBir/NcjH43ONYPftb3lh9CoPrrhPv+mQVn8Qcw0ujLZ/POPBdxetW8cCTXzH1q73sqomix7F9uOn207hjaML3d/tWbVvL7x+dz+tf7SW7zBKXkkz/QQN5+OHRnJ4UeJvKdau474UVfLR8L5v3VkFSCsNOPYEHfjaU0WkNLnGw7sM53P7sKubu8JKclcXVN42k29Q3+EX0OeQ8PYiUZsQv0p4Eup8Fss8eyMuaaTM4/6Gt9LxxAu/c2J1UjZiLyBGKkCTbB+tuh3VNNNv5ELxxkOVFn8GXnx36fdUrYEETo+KBtAGoWAxzFh+4/M1/N+4Qtj7p/9kn9iwYbmF7oznmwYi/DfP07s/lA+bz9Ps7+f2gHsT4ipn2/nY6nDGRMxJWHdC+Ys0Czr12Lhv7nch9D53OwPhyFr7zBff95G2KXrqS3w/yQO1u/vyz93jaNZCHHjydE9MNRbsLWLK4mJJ9hWwCaQNU5hZS0LUvd589kh6pHsp37uC1f37B+T+Hxf8cRt+6rDhvzizOvmcNSeeN5bX7Mkkp3MkLz8zgjTwfDGpm/CLtTED7WYD7bAO2koUv/pcLnylkzL1TeHliBvGh/MVEpM3S2dop0cNgYF/YvRYqqyDhOBhwFdTOhS054Y6udXGlMun8btz/wirm3NGDM3LX8PrKBCbe0oO40kZJtq+UN56Yz6KMoXz67BmMqTtbjh3eCXvlP3n4xbXc+rfjyCjL5atNhlN/dzq3nLFvxmcW55xVr69A2gApY0bz/8bUW3BSFmf19zH0shW8tvYkHhjgAl8B/3p+FbsGncqsB4dxjAugO2OO8jFqwufsaW78GmWTdiag/SzAffZ73lI+eGwqk9/xMfkvU/j7Gck6KYpI0Oh44hRfJSSMhuFXQEwsePdC7nRY8C+oVM295jH0GH8cY/82hzcWnkbX775lWeYAHh/ihnmNmlZs56OlXo6ZfCwj6w9HudM4b2w6v317Byu9x3F6QidO6m3587PT+UXZYM4d1p3hfRKJr5+8BtIGoKqA/730JY9/tJ1vssspqfFhrcVb46bfDh8McEFZNl9+Zxl80zEcVW++h6d3H3549Fy+aW78UUe4SUVam0D2s0D3WcDWFPDava/x+uJEfvHMBO4fGoe+u4pIMCnJdor3G/jip+GOos0wGX2ZMvJTbn93AfEb8+h7zvmc6DmwIIuvtJw91T7WvvQqiS83ftFHjSeNAgu4O3PvkxOIeWYRrz37Px77o5fojEwuvvI0Hru2J11cAbaxlcz805tMmBnHVTedzr3Hp9El0Y0r71uuvX4RVVX+m1x9ZZUU1hrSU+Mazqk2cWSk7D+1Bxy/SHsS4H4W0D67r8vSbP47t5Kk4SOYPFgJtogEn5JsaR1MHOedfxS337mIf7gyeejcjng4MMl2JcSR6nEx6PKJvHFxhwNvEjQxdKsbBY7udjS/euhofmVr2bNlJx+88wW/eGIa/5dxI+9ekIAJpE3NDv49q4T+V0zguas6f79Deauh3NaPK5YObthVUIGPuHqlCCvYW2ihS/PjFwkqE8FpZoD7GQS2XwO4Uo/l+QeieeTnsznrHjezHx7MMdGh/KVEpK1ToQJpNVJGn8jdZx/DhZcP5/JDFcuN787ZJ3hY9/UuvN3S6d+70U+vRJIav9W46dg7i6tvG8E5idV8t7HowJLlh2rjq6WyxpCYGF1vZ/Kx+rMNfFe/vHtCJqP7w4rPNrCp3nLv5g3MqL+gJfGLBIMrgh/mFOh+Vl+T+7Uhffg4PnjqZLrOn8mZv1zJuiYehiMi0hwayZbWI64Hv/xLj8O3cSVz1c9G8fp1X/CD60u469I+HN/JRVleCeu/3cxHZhD/+/lReLYv5fL7dtDnrKMZ1iuZDHcFK2cvYHppIpOGp+MBfAG0IborZw71cPM7C/jPuPFc3L2WNR/N4dq3i4irnwy70rj2xoE8fdsXTPiN4Q8XZ9KhcCcvPLOCnCQDxvhH2AKMXwNu0q4EuJ8FtM82kjZ0LO8/Yzj/5pmc+QuY9chg+mkHE5EgUJItbU7csSP58I1UHn72K557eBVbSyxJackcc1wvLrrMf6I1HToyotsG3nrjM57LKaOEGLr16cGNfz6f346OgQDb4Erimt9fyLYHPuXWCY9ztSeOY048lnv+NIoXfzq3QVzpp57FzIdjuP3peVz+oZekHj248ic/4JZ/v80fE2O+f6pdIPGLtCsB7mcB7bMHkXriGN5/xvDDm2dy5t2WWY8Mof+hm4uIBMRYa4N/G9W7E6EsN+jdSiuUnAZHHxfuKCKWzVvFxed/yN6f3sCcq1Kcm79VnA8bv3Wqd2kL3B4YPDLcUUitF1YuCHcUIu1Lt5Ew7pGgd6tBMZEQsSWbefTZXDoO7UKfdA8VOTt565/zmRHblzfPczDBFhERkZBTki0SIsYdBdnr+NMDC9heUA0JSQwcdjyvPzyaienhjk5ERESCSUm2OKvWG+4IIkd8d+5+/CruDse6aw+olyLSUK0XrI3sUn7tge9Q5VJEpLXRFWpxVmW5/8Qt4VVRGu4IpDUo199J2OkzEGkzlGSLs2q9kK+bYMOq1gt5+gwkAHuzwx2B7NkZ7ghEJEicSbK9lY50K63Uzs3+EW0JPWth2zrw1oQ7EmkN8ndDwe5wR9F+5e6AksJwRyEiQeLMnGyf5uFKPbVeWLscuvaC9M6R/WS5tqS0ELK3QFlJuCOR1mTLWigrhc7dIErFokOiqgJytukLjkgb40yS7dL9lNKIrxZ2bITszRAdCy7NVHKMtVBdpZtOpeX27PRPHYmO8dfPFufUVPt/RCR8jDODf84cPeM7QVWRI11LK+fzaeqISGtgLVRp6p+ItAPxnRzp1pnhxKRujnQrIiIiIhJUiV0d6daZJLvHqY50KyIiIiISNMYFPcY60rUzSXbWqRCX5kjXIiIiIiJB0XUEJGY60rUzSbYrCkb+2v/tQEREREQk0sSkwPC7HOveuSw4czgMvd2xOzZFRERERFokKh7GPujYTY8AxlqHn3mduwwW/BHKdjm6GhERERGRJnUcDCf/ApJ7Oroa55NsAOuD7EWwcx6U5qi8n4iIiIiEhjEQlwFJ3aH7aOg0JDSrDUmSLSIiIiLSjujORBERERGRIFOSLSIiIiISZEqyRURERESCzBPWtfu8sHMJ5KzA5m+EigKo1E2RIhEntkO4IxARETk8TxzEpWA69oeuJ0DH/uENJyxrLdiCXfQcfPc/KM8PSwgiIiIi0vZ8X9EjtTdm0EQY+uOwDBaFtrpIVQn20z/Aijf9o9giIiIiIk6KScKM/jkMvzGkTyMPXZKdvQw77Xoozg7J6kREREREvtdjOObiFyDBuac81heaJHvjp9hpN0BNueOrEhERERE5qJQszOVvQWovx1flfJKdvRT7+kSoqXB0NSIiIiIiTUrtjbn6fxCf7uhqnJ2YUp6PnXqNEmwRERERiQwFm7HvXAe21tHVOJpk29m/gbI9Tq5CRERERKR5ti+GxS84ugrnkuycFfDtu451LyIiIiLSUnbe41BZ7Fj/jiXZdv4T1KtUKCIiIiISOSqLYOlLjnXvTJJdUQjrP3akaxERERGRYLDfTHWsb2eS7I0fg6/Gka5FRERERIIibyPsXe9I144k2TZ7mRPdioiIiIgEV/YSR7p1ZiR7z3eOdCsiIiIiEkzWobzVmSS7PK+Fb3TBSf/B3JuDufVvEGsavpz6U8w9WzEntORxmC7odQ2MOAtMk41DIApOn4+55UGnq5WLiIiIyKGU5zvSrTPpXVXpkfeRdBHmxL5H3s/3XNDzGszJZympFRERERG/yiJHuo3MdNP3HWwpgGG3Q3xEDDsHmQvc7nAHISIiIiLW50i3Hkd6PVK2GLvg35iJv8YMfQY7d9VhGhvoNAEz9kbI6guecsiZjZ3zIGzb97TJKBg/DzO8B9AP88sp/sWFz2Pfq8ZccSG8OQq7rQZwwdCpmLOGw7xzsXO+8bfNuA3z4xvhnaHYDZX7++19E2bMpdC5G/jyYNt72M8fhT1l+9ucPgdz7BzshzmY0VOgcyYsn4L1Nv5dYmHI45izT4F512HnfXXk21JEREREQi4yR7IBCt7ArsyBk34OCYcZze58K+bKv0LsIuyMK7BT78GWnIi59DVM19i6RjUw72Ls15ug/F3sc8OxTw/HvvpXyJ0PlZ0h6+i6tomQNQhqvJB1ct38bQPdR4FvCXZnVV07A0c9gLnkTqiYhn3nMuyM56DDFZgpz0Nqo5Hq+Isxp/XDzrkS++wY7OI1jX6RZBj5MubsE2DWRCXYIiIiIq1Y5CbZlMHCp8A1HjPixIM3MV1g3K1Q+hL27ftg3ZeweTpMvxa7ux+MPHd/24pdUFUDtgyKtvt/SorAuxS7sxqyRvgTas8JmO61sGwadBpVd/NlAvQ8oS4hr3uKpekFoydD3tPYaY/CpgWw9nns278H96mYEaMaxurOg1l3wpZ1ULIVCuvN/3F1gfFTMadkwLsXYZevDdpWFBEREZHQi+AkGyiail2+HY7/GSQdJNSo4ZgesbB2GlTXW+7bDBs3QNfh0OTU5xLYugoyT4FooOMoiF6BXTIbak/CdI0B92BMjzjYtnD/k+KjT8B0NrBuBtTW6674fewOL3Qf3nDrVn2Nza7kAO7emB9Owwwsh7cnYtdlB7BhRERERCSSReac7O9VwqInYMhjmJOHYxvXCo9J999AePJ0zIhGrxkP1G4IYB0+2LYAPJdhMuOwnUdC3sdQ9BU2Jw7T8zgoGQUJBbC1Xh3FmBR/El3WuFxhKZRVQMeUhouri+Fg8+pjToA+ybD1WezOggDiFREREZFIF+FJNlD6LnbpTzFD74QNcxq+Vl0IPi8suRq7YseB77WlDUeZD2XvfCi/GXoNh44DYNsfwFcIW9dC/1FQMhJqv8bmVO1/T1WhP2lOSAd21essERLioLIwsN+v/F3s+yWYix/C/KgaO/2twGIWERERkYgV2dNFAKiGr54A78mYkWMavbQIu6MasoZA4QbIa/STXz/5teCtAU8sB6hdjt1RAUfdjOle5Z8+Qq1/ekjHszH9h8Cu+VAvx6Z6KTbXQt/zG05JST4P090N2xcdfOT6AD7Y+jB26tPQ+y+YCy4LYIqLiIiIiESyyB/JBih7H/v1TZixY2kw+dpmw2dPwOS7MZMzsUtnQ6kX4jMhcyyGt7Gffl7XuBb2roeokzEnjsPuKADvbtiTA5TB1hUwYAzUzN4/d3r3PKj+KfTwwZf15mMD2K3w5Rsw6WbMBItdMh+iB2JOuRNq52IXL2jGL2hh2yPYqT7MpEcwFxjse29qRFtERESklWodSTY1sOSvcOKLkNjopV1PYl/Zghl9A2b8RH81kPIcyJmLXdpoTvaGR7HLH8Wc8hImPgYKX8A+dz/4fLB9AfjGQO48qKjLpr1LsTsrMMcUw7Z1jVZsYdNvsVN3YUZfhplwC9Tuhe2vY9/7CxQ0N0O2sP1R7Ns+zKQ/Yy50Yd97HQ6opS0iIiIikc5Ya23TzZrHPjUUincGu1sRERERkeDqMx5zyatB77YVzMkWEREREWldlGSLiIiIiASZkmwRERERkSBTki0iIiIiEmRKskVEREREgkxJtoiIiIhIkCnJFhEREREJMiXZIiIiIiJBpiRbRERERCTIWslj1YPJgMcDLn2/aMBa/4+IiASPzwe+2nBHISJh0D6SbGMgIQmTmAzRMf5/i4iIhILPB5UV2JIiqCwPdzQiEiJtP8mOjsFkdIGoqHBHIiIi7ZHLBfEJmPgEqCzH7s2FWo1ui7R1bXvORFQ0pks3JdgiIhIZYuMxnbtryqJIO9B293KXC9OxC5i2+yuKiEgrFBWFSe8c7ihExGFtNwNN7ABR0eGOQkRE5EDxCRAbH+4oRMRBbTbJNknJ4Q5BRETkkHSeEmnb2maS7faAR/OwRUQkgsXGhTsCEXFQ20yyPW2/aIqIiLRyLrdugBRpw9pmNupyhzuCtsHlBXc1GF+4I2m7aqOgNhoIYu124wN3FbhUIswxPjfUxoIN5udm6z43b/D6lIasC7wxYCPoHOFy+etoS2BSqiGpGhOtbeYkW+WGomgo0ayAI9E2k2w5MjHFkLzF/19xns8DZV2gOMufBLSUpxI6bIa4fEBP73ScdUFFOhT1rvui1ELGB8lbISFXCXaoVKVAUU+oTgp3JBKo2FpM/0JIqAl3JO3C98MHBTHY9R2gRldcWkJbTRqK2wsdv1GCHUouLyTt8G/3ll41iCqHTsshLg8l2CFifBC/x7/dPZUt7KMWOq2EpJ1KsEMpptC/v8XmhzsSCUSUDzMwXwl2OKRWYY4t8F9pk2ZTki37uashbT1K0sIkusQ/otkSaWuVpIWLu9q//VuiwxaIKg1qOBIg44O0deBS4hbpTLcyiNH0t7BJrIEuFeGOolVSkv09Fwx8ESb+qt5WabzMAye+CRfeEcQtFwVdJsApj8OFH8Dln8LFr8HJl0N8iGfzxO/2j6xJ+CTkNn80O6YIosqciUcCE13S/M/AVev/vCV8XF7/1QiJbBktvFIkQWP0GbSI5mQ3pXInFDt4EDYpcNyNEL0ENr4IpeWQfDL0+wl0yoSZf4PqEI0sK1ELP5fXP/WgphkPqYjWSGhEiCqDmoTA23vKdVNxJND+E/miNfgTdnG6UtoSSrIPywcbfgsbHFyFLYbFV0LJ7noLZ0LBb2H0OdDjX7AxRPMGVY0iMjR32ocud0eG5u4/+twig6ZZRb4gFvGRFnJpGmlLKMk+LBcMfAH6b4Bpf4LvB50MdLwEjp8EqWlQuQHWPg3fraw3ndkDJ74KWV/DkkIYdB50SIGK9Y3aVjVKsAEs7F0FdhzEpQD5zexTRERERMJJc7JbImYsjBgLGx6DT+6FbVVwwiPQv9eBbePOhkEdYcGP4e2LYPkGGHyItt8zkDEITBkUHWTOZov6FBEREZFQUZLdEm43LP81bFwIexbB0l/D5nIYcNmB1wZMESx9HAoKoLYItjwB6wsO3nafmBFw/KlQ8A5kH2SedEv6FBEREZGQUZLdEt7lkF1Ub0EJbFsCMQOhQ6MniXm/gT3178qthl3LD94WwNMXRv8GPF/BvNfgYNM8m9uniIiIiISUkuyWqCmsNz+7TnUhkATRjTZpTemB86RrSg/e1n0UjPkLpG6COb+D4kPcGNWcPkUkNFT+UqTdyFkKf3gLNh5BgaDVr0LMj+CDmoP/W1o/ZWQtEZVy4JaLTgFKoLrRHhedBo0Hl2PTD2zr7gmjH4WMbJhzL+SVH3r9gfYZAguehZhLYY5TN+hbeP5uiLsXCh1axeG0x4NgwL9jiD6bQ53MDhXnsukw6jKIOx3cF8GsNvxZhVt72B9EDiZnGTz4b9io79ZyGEqyW8JzPHRLqbcgGbKGQtUqKGq0x7mPh25p9RZ0gKyTGrZ1dYdRj0HnfPjiHtjTRN3WQPoUR8SkwLFZkNSGS0pF2u94qJPZweL07YI7noLqU2Dm07D4UThZ9yk4JtL+VkREIolOPy1R64UhD0H061BkoccU6B0Hy96CxiO63mp/26hX/W2zroSeMfXadoBhj0KPDrDxDYg+AbL2vdlCyXIoKGpmn+KUo38Iy34Y7iic1Vp+x4PFWZsLmy1MORNO7R+euNqT1vK3IhJMX/7/9u48Pqrq7uP45072DbJAEkD2pQQNiILYyo7s+BQerTyAshSlWkWgotIIWECFLkhfFXiohUe2Qim+qqJiFR/Elj7Qh4IiiGBFVKAgEQiE7Jm5/eMmMhmzzIS5mZnk+3698sdM7pxz7pw75/7uueeesxz6v2Q9MjV0sPVeWDN4bwPcFg6Xj8PC/4GtB+FsCbTsBD++D2Z2U89mQ6P6ro2iv8Le96DdLBj4DLSKhPcfh6Mnvr1t8V9gz86r27YMr7itkQIpaWBEQ4dZ0GeR299CaN/O9zQD7OPt0H4oDNwAF00o/AweWwhdx0LCYEgYAwN/AbsrGWPwz10wYjLEDYH0yfDYLiiqYu7vy8dh9pPQehREDYUO0+G5gxWHy5cPZ9l2BKY9AinDIHkCzHjXSnf/Nug3wcqv7QzYfLL6favs9rgv+xcKqhoC4G3d+FIvWw/AxIcgeQgk3AU/2ATZbmnuXg63bIDii9bJzOgP4ePgb6XfLucbSyBqBpwsgSUPWNu2zoK022HOxx6FLBvqEv0gHGtAiy56+70DnNwH9zwMTYdBzEjongWbPJqYyo6VotOQNRda3wERg6DRGLglC3Z63KDz5jgRCUYnB37tAAAMbUlEQVQ9J8KrYyCiMazfCCf+AMefhx7h1rIVIx6B31+BJ+bAjmdhWlOY9wQs8GyHpN5TT/Y3XHB4Khyu7r1SODAODpS9fOuP3iX99VZ4a2vl/zM/g+0DfC9udWkGigl7N8PotdBnBqwbCbFATjZcTIfH+kPLRMg/Cxs3w6in4P+XQaeyS73ze2Ho0xDZF9bPgKQcWP4ibMkFMipmVfBPGDETjneAeXPghhjY+4bVkF1aBgvctnddgZ/8Er4/BjZNgH2vwsLFkP8R/P0EPPQAzCmGlS/A1MXQfTl09uHys9DL/Qtl3taNT/VyEWb9DhY8BEtbwfGdMHY5TG8GmwdYi7z1nAivOmHMTlizAvqEgxEO6eFw3KOMAx+EYz2h72K4cxHMbgsREbB0Ovx+O8zLgPJFz50nYc0HMGAmdKwH9eMLb773C/vg9iwo7gnLFkGzAtiwDibOhCv/DdOaV5G4E37+FKxwwDNPwE2JcOk87P8Act0CcV+OE5FgE9UImsWD4YC0NGgTUfYPE9ashr+nwM4l0CfGervvjWBOhyWbYfoCaKLhVQ2GgmzxDydsXwXjt8P4+fCb3lcPrsResLqX27ZdYUh76PEgbDwOCzsCJqzdCKfbw/4suKHsw7e1gJ4/hmz3vEzY5ENDZhbAsOmw9Cbr9ZBOsHccvLgH3lkD/aOt928qhHa/hu1noXNVQUQlvNq/UOZt3fhaL06YMgumdrJeN/0PePhtWPQXyBsA8VRzMqtETGNonQxhBjROgTbp1vtTh8PKrfD6/TC2kfXeP96E92Nhc7+Gdzuvxu/dhLXr4EQr2LMAbi77zgd8B87+EJ7eAhNnQXRliefDvi+g32x4uPfVt4f3cy+Ab8eJNHChtJx3Abx1CDqOge/GuL0fBiNvhfnb4MNSGFhNOyb1S0M7v4gNzBLYuBju2gEzF8OK3h5Xb8Xw2gYY9ENIHQkxQyD+AThcAsfOlG2TD7s/hRt6Q4bbh6Paw/dbemRY3pD1qbwhyz9iNWTljAQYkVnxdadkSLkRvucWKSS3hKbA6Qv4xpv9C2Xe1o2P9eJoBH3aum3ngLZpUHQBzvvxvJoxDPqVwOpdZUMRCmHNDmg+EEbE+y+fUFHj954Pf/0UOveGbm7BgCMV/isTzh6GT6p6vjoWbm4FO9bB4y/DrhOQ71mXPh4n0sCF0MWWKw+yS+DYFogfDNFufz3WWzPtXgx0IaVOqSfbNh5DS4I2zWtn5sHLeyHhRhjfxaNNNOHPz8Od78LEyZB1PaTHgiMHpjwKRUXWZq48yHFCWorHlZ8DmidVzK9CQ+Y5YseEkvCKDZkjGuI8GupwB8TGeJTVYf0gSn2ZoMXL/Qtl3taNr/ViREKUR704DMBZ+RpMteVoAj+6Dca/DkdHQdr/wUs58PAIiKn54/VOTd97eX03SfKobwOaJoJ5AnKquggKg6xnIGotbFwPS39jzTj6n3fC0nGQbvh+nIiECkcsJIVB5mjYNKKSXkwDWijqalBU3XLNHInwwmz4xc9gyDOw40noWN4DVgp/eA863wmr7rp6wJWWVOzhcsRBYhhk51nr7HwTA5iQk0eFe9NB1ZB5uX+hzNu6Cap68ch3xB3QfDa8+BG0fR0KMmBShwCUJQSU1/fxi1bP/zf1aEJ2DhjxkFhN72JkOvx0DvzUhOyTsP0NeHw1/CgFXhkaxMeJiA8iI8EsBve1l4mFoTfArINQOhW6alhIg6fhIuIXKd1h+7PQ/B8w+Gn4pPwhJxcUlkB8bMWD7cjf4Kj7NAKx0KcDfLgfzrkFp65s+N8vPDIra8g+OQilzaBzK4+/lnU4b6+3+xfKvK0bm+ql0pOZj6IzYUobWP9bWH4IBo+EdiF0G7pOldX30d1w0O1hRdc52HII0jOhk+diWJUxoGkrmHQfDI+Ho5+X3aEIpt+vSC21ag0JhbBhG+w5CvtPQB4wcRr0OAnDHoXn3oGdH8Br78Jzq2Dob6E40AWXOqUgW666xmWhk7vBG4uhxQEr0D5WAkTC4G5wYDu8dBJKS+HQOzDlNYhxP5EaMOkeaLIf7v8j/KsY8s/Bkl/Bvm+VM4gaMm/3L5R5Wzc21UulJzNf7xI4YNIoyPsIjsXD/X1Caqhn3TJgyiRo+yXcNQ/W7YW3d8HkLNgRDnPvruKhR8D1Lxg7E558GV7ZB7sPwMoVsC0P+ncvu9MTTL9fkVpq9F14fhQcXA99H4ReWfCBE2I6wZsrYGoTWLUChj8GU1bC1pMw6CYNH2hoVN/i5trHNyRlWoH2HVkweCG8PQ8mz4Yvl8H0+2BSOHTMhDlZsOaJip9NuRX+nAUz1kKH1RCXCqPvhrkumO+RT3lDtmSd1ZB9cQUSEqFjJxgzug4PbMP7/Qtl3taNHfVSfjL72XroexnMdGvRh6SaP1rBdbdBr+Xwxe0wJK7m7RuypJ7wzrMwZx08+hRcCYfOXWHdXJhQzcw7RgL0Soctf4JV2ZBrQou2MG0uzL/l6nZB8/sVqa0IGD/L+vMU1xoWzYdFNSTR5V4ourfq1xL6DNM0/T5y1FzeAy6f9ney3ouJw0htFrj8Q1XTDyHqcqBLIdldoaiR99s3/hwSTtlWnPrizJuQ8RzMfgHmtq15e59dagO513m/ffQFaHLEhoKITwqT4esuAcvePP25dQtMKhdmYtz6VaBLIU4Dc29aoEthnw63Y9y9we/JqsNAROq1c1/CsVOwbC2E3QJT2wS6RCIi0hDYE2QXX6l5GwlCGqUakkzVW5VMeOV5eGA/tOgCv3sEmgXN1xU0BREJXvVklqaQ51J7VRv2BNn+H4EidcEZGegSCIDTx3mfXKq3Khkw7ZcwrS7yckbZu73Yw9ffm9QtlwFFYRDlz9nzxWeF3kwpJJ7q5+wijvq5W7YrSgx0CcQZBaU+LpFS1NiesogPDN/G0QOUxOjCNhio3Qt+2VXNZyN1xcxuiEt3XTtFo3JVflPfAzzxr8utfP9MSSwUNPF/WcR7eWm16Jk2ILdlzZuJfUri9NsJAeapeCjQI2QBkxsBZxUb1IY9QXaYbr+FJNMB5zOgVL0GAZF7nRWs1cbFDr73pIp/FCZDTrvaffZKM7hSzZx4Yp/SGKu90zMNwc9pYB5Ogsu681PnzkdjHkmq/78Thz0XcfakGt0Y8s/bkrTYrCQWzt0IcWcg5gKEFYIRxGPsXSHeu2E6rN60vGbXFiS7wiE7E+K+gtivIbzgmhcXslWo1xuGFaTlp0L+NfaE5rSDgmSIPwMReeAI4unczLDQP9k6o6zvOy/d2h8JDcVhmIeSIaEEEkowIoK4ffOB6TQIyoegSw3roiY/1NtqL0XZ00llz7cXmwIXPrMlaa/owctr4wq3bmPrVnaIMazAIS890AURXxUlamywiDdyIyA3QpOOiH/FpdiSrD3DRdKutyVZrzmDuCdIRESknLN+9MiKhDIj1Z641ZYg22jRw45kvVdaEtj8RUREalJaqjuvIsGgxc22JGtPT3aHwRAWwAcUnE4oKgxc/iIiIjUp0MJtIgGXej0ktbElaXuC7OhG8J3htiTtLTP3UkDzFxERqY6ZeznQRRBp8IyuY21L27Z5so3vzSCgT8zm5UJBXuDyFxERqYKZcwFKigNdDJGGLTYFut9jW/L2LUaTmgHdJ9iWvDfMr7+C4qKAlkFERKSCvFy4dCHQpRBp8IwBWRBh30I7tq74aAx6ChpfZ2cW1XO5MM+egtxLoAl/REQkkEwX5oVsqwNIRAKr/SDoNs7WLAzTtPnR5nMfY24YDUUBHnsWFg7xjTCioiA8AowgnPxdRETqF5cLSkswCwusHmyXK9AlEpHUDIx7X7FtEZpy9gfZAKf3Y26dCPm6PSYiIiIiAZKeiXH3BohPsz2rugmyAS6ewPzTNPjqcJ1kJyIiIiLyjS6jMUb8CiLj6iS7uguyAVylsHcF5p6VgR8+IiIiIiL1X1IbjAFzofPIOs22boPscoWX4P31mB+9DOc+rvPsRURERKQec0RAm94YmT+AjDvAEV7nRQhMkO3u0ik4cxDOf4pZeBGKNbe1iIiI1ENRCWCEBboU9VdYJEZMIqR2gfRM2x9srEngg2wRERERkXrG1nmyRUREREQaIgXZIiIiIiJ+piBbRERERMTPFGSLiIiIiPiZgmwRERERET9TkC0iIiIi4mcKskVERERE/ExBtoiIiIiInynIFhERERHxMwXZIiIiIiJ+piBbRERERMTPFGSLiIiIiPjZvwG5Aidh+nsplwAAAABJRU5ErkJggg==;" parent="1" vertex="1">
                    <mxGeometry x="49" y="50" width="729" height="464" as="geometry"/>
                </mxCell>
                <mxCell id="3" value="" style="rounded=1;whiteSpace=wrap;html=1;fillColor=#D4D4D4;strokeColor=none;" parent="1" vertex="1">
                    <mxGeometry x="40" y="645" width="645" height="60" as="geometry"/>
                </mxCell>
                <mxCell id="5" value="&lt;b&gt;&lt;font style=&quot;font-size: 17px&quot;&gt;API&lt;/font&gt;&lt;/b&gt;" style="text;html=1;strokeColor=none;fillColor=none;align=left;verticalAlign=middle;whiteSpace=wrap;rounded=0;" parent="1" vertex="1">
                    <mxGeometry x="55" y="665" width="125" height="20" as="geometry"/>
                </mxCell>
                <mxCell id="11" value="&lt;b&gt;&lt;font style=&quot;font-size: 17px&quot; color=&quot;#ffffff&quot;&gt;C&lt;/font&gt;&lt;/b&gt;" style="text;html=1;strokeColor=none;fillColor=none;align=center;verticalAlign=middle;whiteSpace=wrap;rounded=0;" parent="1" vertex="1">
                    <mxGeometry x="115" y="545" width="40" height="20" as="geometry"/>
                </mxCell>
                <mxCell id="22" value="" style="rounded=1;whiteSpace=wrap;html=1;fillColor=#FFE599;strokeColor=none;" parent="1" vertex="1">
                    <mxGeometry x="40" y="710" width="540" height="60" as="geometry"/>
                </mxCell>
                <mxCell id="23" value="&lt;b&gt;&lt;font style=&quot;font-size: 17px&quot;&gt;Ledger&lt;/font&gt;&lt;/b&gt;" style="text;html=1;strokeColor=none;fillColor=none;align=left;verticalAlign=middle;whiteSpace=wrap;rounded=0;" parent="1" vertex="1">
                    <mxGeometry x="55" y="730" width="95" height="20" as="geometry"/>
                </mxCell>
                <mxCell id="24" value="&lt;font style=&quot;font-size: 14px;&quot; color=&quot;#ffffff&quot;&gt;Signatures&lt;/font&gt;" style="rounded=1;whiteSpace=wrap;html=1;fillColor=#FF8000;gradientColor=none;strokeColor=none;fontSize=14;fontStyle=1;fontFamily=Helvetica;" parent="1" vertex="1">
                    <mxGeometry x="155" y="725" width="100" height="30" as="geometry"/>
                </mxCell>
                <mxCell id="25" value="&lt;font style=&quot;font-size: 14px;&quot; color=&quot;#ffffff&quot;&gt;Events&lt;/font&gt;" style="rounded=1;whiteSpace=wrap;html=1;fillColor=#FF8000;gradientColor=none;strokeColor=none;fontSize=14;fontStyle=1;fontFamily=Helvetica;" parent="1" vertex="1">
                    <mxGeometry x="260" y="725" width="100" height="30" as="geometry"/>
                </mxCell>
                <mxCell id="26" value="&lt;font style=&quot;font-size: 14px;&quot; color=&quot;#ffffff&quot;&gt;Metadata&lt;/font&gt;" style="rounded=1;whiteSpace=wrap;html=1;fillColor=#FF8000;gradientColor=none;strokeColor=none;fontSize=14;fontStyle=1;fontFamily=Helvetica;" parent="1" vertex="1">
                    <mxGeometry x="364" y="725" width="100" height="30" as="geometry"/>
                </mxCell>
                <mxCell id="27" value="&lt;font style=&quot;font-size: 14px;&quot; color=&quot;#ffffff&quot;&gt;State&lt;/font&gt;" style="rounded=1;whiteSpace=wrap;html=1;fillColor=#FF8000;gradientColor=none;strokeColor=none;fontSize=14;fontStyle=1;fontFamily=Helvetica;" parent="1" vertex="1">
                    <mxGeometry x="470" y="725" width="100" height="30" as="geometry"/>
                </mxCell>
                <mxCell id="32" value="&lt;span style=&quot;font-size: 14px;&quot;&gt;Governance&lt;/span&gt;" style="rounded=1;whiteSpace=wrap;html=1;fillColor=#B3A06B;gradientColor=none;strokeColor=none;fontStyle=1;fontSize=14;fontColor=#FFFFFF;" parent="1" vertex="1">
                    <mxGeometry x="585" y="710" width="100" height="60" as="geometry"/>
                </mxCell>
                <mxCell id="36" value="&lt;b&gt;&lt;font style=&quot;font-size: 17px&quot; color=&quot;#ffffff&quot;&gt;Messages&lt;/font&gt;&lt;/b&gt;" style="text;html=1;strokeColor=none;fillColor=none;align=left;verticalAlign=middle;whiteSpace=wrap;rounded=0;" parent="1" vertex="1">
                    <mxGeometry x="55" y="860" width="145" height="20" as="geometry"/>
                </mxCell>
                <mxCell id="38" value="&lt;font style=&quot;font-size: 14px;&quot; color=&quot;#ffffff&quot;&gt;Request&lt;/font&gt;" style="rounded=1;whiteSpace=wrap;html=1;fillColor=#FF8000;gradientColor=none;strokeColor=none;fontSize=14;fontStyle=1;fontFamily=Helvetica;" parent="1" vertex="1">
                    <mxGeometry x="155" y="790" width="100" height="30" as="geometry"/>
                </mxCell>
                <mxCell id="39" value="&lt;font style=&quot;font-size: 14px;&quot; color=&quot;#ffffff&quot;&gt;Send&lt;/font&gt;" style="rounded=1;whiteSpace=wrap;html=1;fillColor=#FF8000;gradientColor=none;strokeColor=none;fontSize=14;fontStyle=1;fontFamily=Helvetica;" parent="1" vertex="1">
                    <mxGeometry x="260" y="790" width="100" height="30" as="geometry"/>
                </mxCell>
                <mxCell id="41" value="&lt;b&gt;&lt;font style=&quot;font-size: 17px&quot;&gt;Protocol&lt;/font&gt;&lt;/b&gt;" style="text;html=1;strokeColor=none;fillColor=none;align=left;verticalAlign=middle;whiteSpace=wrap;rounded=0;" parent="1" vertex="1">
                    <mxGeometry x="55" y="795" width="115" height="20" as="geometry"/>
                </mxCell>
                <mxCell id="42" value="&lt;font style=&quot;font-size: 14px;&quot;&gt;Message&lt;/font&gt;" style="rounded=1;whiteSpace=wrap;html=1;fillColor=#FFE599;strokeColor=none;fontSize=14;fontStyle=1;fontFamily=Helvetica;" parent="1" vertex="1">
                    <mxGeometry x="155" y="855" width="100" height="30" as="geometry"/>
                </mxCell>
                <mxCell id="43" value="&lt;font style=&quot;font-size: 14px;&quot;&gt;Task&lt;/font&gt;" style="rounded=1;whiteSpace=wrap;html=1;fillColor=#FFE599;strokeColor=none;fontSize=14;fontStyle=1;fontFamily=Helvetica;" parent="1" vertex="1">
                    <mxGeometry x="260" y="855" width="100" height="30" as="geometry"/>
                </mxCell>
                <mxCell id="44" value="&lt;b&gt;&lt;font style=&quot;font-size: 17px&quot; color=&quot;#ffffff&quot;&gt;Network&lt;/font&gt;&lt;/b&gt;" style="text;html=1;strokeColor=none;fillColor=none;align=left;verticalAlign=middle;whiteSpace=wrap;rounded=0;" parent="1" vertex="1">
                    <mxGeometry x="55" y="925" width="150" height="20" as="geometry"/>
                </mxCell>
                <mxCell id="48" value="&lt;font style=&quot;font-size: 14px;&quot;&gt;Kademlia&lt;/font&gt;" style="rounded=1;whiteSpace=wrap;html=1;fillColor=#FFD966;strokeColor=none;fontSize=14;fontStyle=1;fontFamily=Helvetica;" parent="1" vertex="1">
                    <mxGeometry x="155" y="920" width="100" height="30" as="geometry"/>
                </mxCell>
                <mxCell id="50" value="&lt;font style=&quot;font-size: 14px;&quot;&gt;Identify&lt;/font&gt;" style="rounded=1;whiteSpace=wrap;html=1;fillColor=#FFD966;strokeColor=none;fontSize=14;fontStyle=1;fontFamily=Helvetica;" parent="1" vertex="1">
                    <mxGeometry x="260" y="920" width="100" height="30" as="geometry"/>
                </mxCell>
                <mxCell id="51" value="&lt;font style=&quot;font-size: 14px;&quot;&gt;Noise&lt;/font&gt;" style="rounded=1;whiteSpace=wrap;html=1;fillColor=#FFD966;strokeColor=none;fontSize=14;fontStyle=1;fontFamily=Helvetica;" parent="1" vertex="1">
                    <mxGeometry x="364" y="920" width="100" height="30" as="geometry"/>
                </mxCell>
                <mxCell id="52" value="&lt;font style=&quot;font-size: 14px;&quot;&gt;Tell&lt;/font&gt;" style="rounded=1;whiteSpace=wrap;html=1;fillColor=#FFD966;strokeColor=none;fontSize=14;fontStyle=1;fontFamily=Helvetica;" parent="1" vertex="1">
                    <mxGeometry x="470" y="920" width="100" height="30" as="geometry"/>
                </mxCell>
                <mxCell id="56" value="&lt;font color=&quot;#ffffff&quot; style=&quot;font-size: 14px;&quot;&gt;&lt;span style=&quot;font-size: 14px;&quot;&gt;Subjects&lt;br style=&quot;font-size: 14px;&quot;&gt;&lt;/span&gt;&lt;/font&gt;" style="rounded=1;whiteSpace=wrap;html=1;fillColor=#919191;gradientColor=none;strokeColor=none;fontSize=14;fontStyle=1" vertex="1" parent="1">
                    <mxGeometry x="155" y="660" width="100" height="30" as="geometry"/>
                </mxCell>
                <mxCell id="57" value="&lt;font color=&quot;#ffffff&quot; style=&quot;font-size: 14px;&quot;&gt;&lt;span style=&quot;font-size: 14px;&quot;&gt;Requests&lt;br style=&quot;font-size: 14px;&quot;&gt;&lt;/span&gt;&lt;/font&gt;" style="rounded=1;whiteSpace=wrap;html=1;fillColor=#919191;gradientColor=none;strokeColor=none;fontSize=14;fontStyle=1;fontFamily=Helvetica;" vertex="1" parent="1">
                    <mxGeometry x="260" y="660" width="100" height="30" as="geometry"/>
                </mxCell>
                <mxCell id="58" value="&lt;font color=&quot;#ffffff&quot; style=&quot;font-size: 14px;&quot;&gt;&lt;span style=&quot;font-size: 14px;&quot;&gt;Approvals&lt;br style=&quot;font-size: 14px;&quot;&gt;&lt;/span&gt;&lt;/font&gt;" style="rounded=1;whiteSpace=wrap;html=1;fillColor=#919191;gradientColor=none;strokeColor=none;fontSize=14;fontStyle=1;fontFamily=Helvetica;" vertex="1" parent="1">
                    <mxGeometry x="364" y="660" width="100" height="30" as="geometry"/>
                </mxCell>
                <mxCell id="59" value="&lt;font color=&quot;#ffffff&quot; style=&quot;font-size: 14px;&quot;&gt;&lt;span style=&quot;font-size: 14px;&quot;&gt;Others&lt;br style=&quot;font-size: 14px;&quot;&gt;&lt;/span&gt;&lt;/font&gt;" style="rounded=1;whiteSpace=wrap;html=1;fillColor=#919191;gradientColor=none;strokeColor=none;fontSize=14;fontStyle=1;fontFamily=Helvetica;" vertex="1" parent="1">
                    <mxGeometry x="470" y="660" width="100" height="30" as="geometry"/>
                </mxCell>
                <mxCell id="65" value="&lt;font color=&quot;#ffffff&quot; style=&quot;font-size: 14px;&quot;&gt;&lt;span style=&quot;font-size: 14px;&quot;&gt;Notifications&lt;br style=&quot;font-size: 14px;&quot;&gt;&lt;/span&gt;&lt;/font&gt;" style="rounded=1;whiteSpace=wrap;html=1;fillColor=#666666;gradientColor=none;strokeColor=none;fontSize=14;fontStyle=1;fontFamily=Helvetica;" vertex="1" parent="1">
                    <mxGeometry x="575" y="660" width="100" height="30" as="geometry"/>
                </mxCell>
            </root>
        </mxGraphModel>
    </diagram>
</mxfile>